<svg xmlns="http://www.w3.org/2000/svg" xmlns:xlink="http://www.w3.org/1999/xlink" viewBox="0 0 50 50"><defs><style>.cls-1{fill:none;}.cls-2{clip-path:url(#clip-path);}</style><clipPath id="clip-path"><rect class="cls-1" width="50" height="50"/></clipPath></defs><title>Asset 1</title><g id="Layer_2" data-name="Layer 2"><g id="Layer_1-2" data-name="Layer 1"><g class="cls-2"><path d="M50,25A25,25,0,0,0,0,25V39.5A2.5,2.5,0,0,0,2.5,42h5A2.5,2.5,0,0,0,10,39.5v-14A2.5,2.5,0,0,0,7.5,23H5.1a20,20,0,0,1,39.8,0H42.5A2.5,2.5,0,0,0,40,25.5v14A2.5,2.5,0,0,0,42.5,42h2.22a4.49,4.49,0,0,1-4.22,3H34.91A6,6,0,1,0,29,50l.33,0,.17,0h11A9.51,9.51,0,0,0,50,40.5a2.58,2.58,0,0,0-.05-.5,2.58,2.58,0,0,0,.05-.5v-14c0-.08,0-.17,0-.25s0-.16,0-.25"/></g></g></g></svg>