<svg xmlns="http://www.w3.org/2000/svg" viewBox="0 0 48.73 48"><title>Asset 1</title><g id="Layer_2" data-name="Layer 2"><g id="Layer_1-2" data-name="Layer 1"><path d="M41.5,30h-25a2.5,2.5,0,0,1-2.41-1.83L8.78,9.2a2.49,2.49,0,0,1-.42-1.39s0-.07,0-.11L7.6,5H2.5a2.5,2.5,0,1,1,0-5h7a2.5,2.5,0,0,1,2.41,1.83l1,3.48H46.23a2.5,2.5,0,0,1,2.43,3.08l-4.73,19.7A2.5,2.5,0,0,1,41.5,30ZM18.4,25h6a19.17,19.17,0,0,0,18.64-14.7H14.28Z"/><path d="M44.92,40.77H19.52a2.5,2.5,0,0,1-2.41-1.83L7.1,3.17a2.5,2.5,0,0,1,4.81-1.35l9.5,33.94h23.5a2.5,2.5,0,0,1,0,5Z"/><circle cx="21.5" cy="45.5" r="2.5"/><circle cx="43" cy="45.5" r="2.5"/></g></g></svg>