<svg xmlns="http://www.w3.org/2000/svg" xmlns:xlink="http://www.w3.org/1999/xlink" viewBox="0 0 44.5 50"><defs><style>.cls-1{fill:none;}.cls-2{clip-path:url(#clip-path);}</style><clipPath id="clip-path" transform="translate(0 0)"><rect class="cls-1" width="44.5" height="50"/></clipPath></defs><title>Asset 1</title><g id="Layer_2" data-name="Layer 2"><g id="Layer_1-2" data-name="Layer 1"><g class="cls-2"><path d="M39.49,23.54l4.79-10.41A2.5,2.5,0,0,0,42,9.58H28.7V7.5A2.5,2.5,0,0,0,26.2,5H5V2.5a2.5,2.5,0,0,0-5,0v45a2.5,2.5,0,0,0,5,0V32.92H16.68V35a2.5,2.5,0,0,0,2.5,2.5H42A2.5,2.5,0,0,0,44.27,34ZM5,27.92V10h.78A17.92,17.92,0,0,1,23.7,27.92Zm29.46-3.33L38.1,32.5H28.69c0-.08,0-17.92,0-17.92h9.4L34.46,22.5a2.5,2.5,0,0,0,0,2.09" transform="translate(0 0)"/></g></g></g></svg>