<?xml version="1.0" encoding="UTF-8" standalone="no"?>
<!-- Created with Inkscape (http://www.inkscape.org/) -->

<svg
   xmlns:dc="http://purl.org/dc/elements/1.1/"
   xmlns:cc="http://creativecommons.org/ns#"
   xmlns:rdf="http://www.w3.org/1999/02/22-rdf-syntax-ns#"
   xmlns:svg="http://www.w3.org/2000/svg"
   xmlns="http://www.w3.org/2000/svg"
   xmlns:sodipodi="http://sodipodi.sourceforge.net/DTD/sodipodi-0.dtd"
   xmlns:inkscape="http://www.inkscape.org/namespaces/inkscape"
   width="690.39935mm"
   height="550.83594mm"
   viewBox="0 0 690.39935 550.83594"
   version="1.1"
   id="svg8"
   inkscape:version="0.92.1 r15371"
   sodipodi:docname="mail.svg">
  <defs
     id="defs2" />
  <sodipodi:namedview
     id="base"
     pagecolor="#ffffff"
     bordercolor="#666666"
     borderopacity="1.0"
     inkscape:pageopacity="0.0"
     inkscape:pageshadow="2"
     inkscape:zoom="0.35"
     inkscape:cx="996.12026"
     inkscape:cy="1206.6641"
     inkscape:document-units="mm"
     inkscape:current-layer="layer1"
     showgrid="false"
     fit-margin-top="0"
     fit-margin-left="0"
     fit-margin-right="0"
     fit-margin-bottom="0"
     inkscape:window-width="1600"
     inkscape:window-height="837"
     inkscape:window-x="-8"
     inkscape:window-y="-8"
     inkscape:window-maximized="1" />
  <metadata
     id="metadata5">
    <rdf:RDF>
      <cc:Work
         rdf:about="">
        <dc:format>image/svg+xml</dc:format>
        <dc:type
           rdf:resource="http://purl.org/dc/dcmitype/StillImage" />
        <dc:title></dc:title>
      </cc:Work>
    </rdf:RDF>
  </metadata>
  <g
     inkscape:label="Layer 1"
     inkscape:groupmode="layer"
     id="layer1"
     transform="translate(157.72348,143.21558)">
    <g
       id="layer1-5"
       inkscape:label="Layer 1"
       transform="translate(-148.21741,-201.07465)">
      <path
         inkscape:connector-curvature="0"
         id="path34"
         d="m 35.473095,608.30961 c -0.72761,-0.19759 -2.45401,-0.46969 -3.83646,-0.60465 -1.43706,-0.14031 -3.36339,-0.54298 -4.49792,-0.94023 -2.26525,-0.79316 -6.09123,-1.87581 -8.99583,-2.54555 -2.2449,-0.51766 -6.6776,-2.75987 -8.4194297,-4.25884 -1.06717,-0.9184 -1.10557,-1.0061 -1.10557,-2.52532 v -1.5739 l -1.38197,-1.04656 c -2.15249,-1.63007 -8.26705,-7.97795 -10.8388,-11.25241 -0.62023,-0.7897 -1.20209,-1.49534 -1.29302,-1.5681 -0.41413,-0.33139 -0.89118,-1.61293 -1.46894,-3.94618 -0.35779,-1.44495 -1.16537,-3.60829 -1.88376,-5.04622 l -1.25747,-2.51698 V 336.46072 c 0,-128.71318 0.1023,-235.15505 0.22733,-236.537497 0.12503,-1.38245 0.4986,-3.28745 0.83016,-4.23334 0.33156,-0.94588 0.74546,-2.67229 0.91978,-3.83645 0.17432,-1.16417 0.66361,-2.92064 1.08732,-3.90327 0.42371,-0.98264 0.99913,-2.61208 1.27872,-3.62099 0.27958,-1.00892 1.02918,-2.70526 1.66577,-3.76965 0.63659,-1.06439 1.3846,-2.47104 1.66224,-3.12589 0.69939,-1.64956 2.32365003,-3.37638 4.36651,-4.64223 0.95006,-0.58869 2.41508,-1.63049 3.25559,-2.3151 0.84052,-0.68461 1.69007,-1.24475 1.8879,-1.24475 0.83524,0 5.2043697,-2.47357 6.9333897,-3.92531 1.02933,-0.86427 2.15634,-1.65975 2.50445,-1.76773 0.97713,-0.30309 3.15732,-1.43864 4.4072,-2.29549 1.79033,-1.22734 3.47705,-1.60625 7.47052,-1.67819 2.36326,-0.0426 4.10903,-0.21504 5.15937,-0.50971 2.02639,-0.56852 7.86477,-0.80306 15.74271,-0.63243 2.26496,0.0491 3.95911,-0.0402 4.63021,-0.24396 0.82737,-0.25119 64.140195,-0.32095 290.115625,-0.31965 253.15529,0.001 289.23799,0.0498 290.51249,0.38966 0.8004,0.21339 2.3482,0.46188 3.4396,0.5522 3.6416,0.30136 6.5526,0.8653 7.847,1.52015 1.8044,0.91286 4.5675,1.72272 6.5816,1.92907 1.434,0.14692 2.1625,0.43039 4.4257,1.72215 1.4901,0.85046 2.8437,1.54826 3.0081,1.55068 0.1643,0.002 1.1409,1.05901 2.1702,2.34798 1.7831,2.23305 4.6747,4.73932 6.5629,5.68846 0.8049,0.40463 2.7559,2.49711 4.5989,4.93254 0.4955,0.65484 1.3352,1.69432 1.8659,2.30994 0.5308,0.61562 1.2317,1.86578 1.5576,2.77812 0.326,0.91235 0.9784,2.37319 1.45,3.24631 0.6926,1.28248 0.8925,2.01962 1.0406,3.83646 0.1008,1.23693 0.4202,3.14193 0.7097,4.23333 0.524,1.97481 0.5261,3.08768 0.4459,230.716667 -0.085,241.86806 -0.026,230.76529 -1.2576,234.55312 -0.2839,0.87313 -0.6529,2.54 -0.82,3.70417 -0.2271,1.5834 -0.5271,2.4833 -1.1905,3.57187 -1.3204,2.16646 -2.4326,5.48736 -2.8589,8.53575 -0.7973,5.70185 -2.6188,9.16676 -6.7591,12.85746 -1.0377,0.92498 -2.3816,2.3373 -2.9865,3.13851 -0.9698,1.28445 -3.9939,3.85908 -5.588,4.75739 -2.1963,1.23778 -5.6342,2.59255 -7.6013,2.99559 -1.2729,0.2608 -3.3057,0.89165 -4.5172,1.40192 -1.2115,0.51028 -2.9171,1.00611 -3.7902,1.10188 -3.3391,0.36627 -6.2178,1.39833 -9.5095,3.40945 -0.8645,0.52822 -1.7737,0.96039 -2.0204,0.96039 -0.2466,0 -1.3252,0.28567 -2.3968,0.63484 -1.208,0.39362 -2.9034,0.69286 -4.4619,0.78758 -1.3824,0.084 -2.9294,0.27456 -3.4378,0.42349 -0.628,0.18397 -94.52,0.26305 -292.89374,0.2467 -245.060385,-0.0201 -292.182005,-0.0817 -293.292375,-0.3833 z M 620.58471,560.47488 c 0.3717,-0.33941 1.2117,-0.76973 1.8665,-0.95629 0.6549,-0.18653 1.9646,-0.72882 2.9106,-1.20507 5.622,-2.83038 9.5465,-7.92371 10.9919,-14.26538 0.2294,-1.00669 0.5885,-2.07497 0.7979,-2.374 0.3302,-0.47138 0.3792,-18.31046 0.3686,-134.16552 -0.01,-75.6376 -0.1169,-136.20517 -0.2534,-139.57498 -0.3756,-9.27532 -0.3395,-9.0197 -1.6596,-11.74538 -1.4429,-2.97951 -2.2051,-3.89912 -3.9537,-4.77051 -1.0271,-0.51183 -1.7768,-0.68203 -3.0043,-0.68203 -1.3838,0 -1.6941,-0.0882 -2.016,-0.57309 -0.3699,-0.55699 -3.1014,1.60446 -97.2005,76.91395 -53.251,42.61787 -102.4755,82.01943 -109.38774,87.55901 -30.38697,24.35262 -43.99774,35.1196 -44.6623,35.33077 -0.5829,0.18523 -30.37962,0.58362 -63.1666,0.84457 l -6.36122,0.0506 -8.05857,-6.22295 c -19.36758,-14.95586 -42.89787,-33.17253 -93.25444,-72.19563 -12.66031,-9.81094 -27.18593,-21.0628 -32.27916,-25.00413 -5.09323,-3.94137 -19.08307,-14.77508 -31.08854,-24.07494 -12.00547,-9.29989 -30.27677,-23.45207 -40.60288,-31.44931 -10.326125,-7.99725 -22.708625,-17.59301 -27.516675,-21.32392 -22.8896,-17.76169 -23.98706,-18.58548 -24.56002,-18.43565 -0.39965,0.10451 -0.80349,-0.11072 -1.44275,-0.76896 -1.28389,-1.32197 -2.34152,-1.77834 -4.43631,-1.91426 -1.57257,-0.10204 -2.10257,-0.0154 -3.49775,0.57183 -0.90439,0.38065 -2.03488,0.6947 -2.51221,0.6979 -1.43927,0.01 -2.93445,0.8884 -4.96288,2.91683 -2.36187,2.36186 -3.03766,3.72062 -3.02058,6.07319 0.01,1.32094 0.17435,2.03564 0.71044,3.08165 l 0.69796,1.36187 -0.12458,10.54438 c -0.0685,5.79942 -0.25725,66.55055 -0.41942,135.00249 -0.26247,110.79424 -0.25108,124.48259 0.10374,124.68116 0.31438,0.17595 0.36978,0.58174 0.26228,1.92103 -0.29388,3.66115 1.0659,8.8777 3.1578,12.11427 2.30068,3.5596 6.10177,6.7497 9.81236,8.23515 4.30431,1.72316 9.71901,1.95771 14.24776,0.61725 l 2.28274,-0.67569 28.40892,0.25021 c 15.624915,0.13761 51.090335,0.43199 78.812055,0.65416 50.82999,0.40741 121.41223,0.98089 246.0625,1.99927 37.32609,0.30496 92.39247,0.76682 122.36977,1.02635 29.9773,0.25955 61.3438,0.48879 69.7033,0.5094 l 15.199,0.0375 z M 352.91254,401.66445 c 2.9016,-0.50787 4.9536,-1.06172 6.43953,-1.73802 0.59804,-0.27218 1.20854,-0.49488 1.35668,-0.49488 0.14814,0 0.41756,-0.17859 0.59872,-0.39687 0.18116,-0.21829 0.49271,-0.39688 0.69234,-0.39688 0.4087,0 6.10208,-3.80151 6.716,-4.48429 0.21828,-0.24278 1.02195,-0.9054 1.78593,-1.47251 0.76399,-0.56711 1.38907,-1.1257 1.38907,-1.24132 0,-0.11562 0.11509,-0.21021 0.25577,-0.21021 0.14065,0 0.65709,-0.38696 1.14758,-0.8599 0.49051,-0.47294 1.76186,-1.6338 2.82522,-2.57969 1.06336,-0.94588 2.06499,-1.84441 2.22583,-1.99673 0.16087,-0.15232 1.12591,-0.89442 2.14456,-1.64912 1.01864,-0.75472 1.99588,-1.49331 2.17164,-1.64129 0.17576,-0.14801 0.44366,-0.26911 0.59531,-0.26911 0.15166,0 0.27575,-0.10535 0.27575,-0.23413 0,-0.12877 1.69664,-1.50333 3.77032,-3.05458 2.07367,-1.55126 3.98002,-2.99369 4.23635,-3.20546 0.25632,-0.21174 0.5167,-0.38499 0.57859,-0.38499 0.0619,0 0.87116,-0.50602 1.79834,-1.12448 0.92718,-0.61847 1.91699,-1.27678 2.19954,-1.46288 0.28255,-0.18614 0.7221,-0.40839 0.97676,-0.4939 0.25466,-0.0855 0.46302,-0.2462 0.46302,-0.35708 0,-0.11089 0.33375,-0.33986 0.74165,-0.50882 0.40791,-0.16897 1.05757,-0.60013 1.44368,-0.95816 0.38608,-0.35801 0.78724,-0.65093 0.89146,-0.65093 0.10419,0 0.85354,-0.57124 1.66518,-1.26939 0.81166,-0.69816 2.19011,-1.81841 3.06324,-2.48939 0.87312,-0.67098 2.0778,-1.67735 2.67708,-2.23634 0.59925,-0.55898 2.31537,-2.14743 3.81357,-3.52988 1.4982,-1.38245 3.15103,-2.91444 3.67292,-3.40445 0.52192,-0.49001 1.72283,-1.43843 2.66872,-2.10764 0.94589,-0.66921 1.77932,-1.28149 1.85208,-1.3606 0.0728,-0.0791 0.60855,-0.38081 1.19063,-0.67048 0.58208,-0.28964 1.099,-0.61888 1.14871,-0.73165 0.0497,-0.11274 0.46644,-0.38492 0.92605,-0.60484 1.26312,-0.60433 2.40739,-1.2374 2.55545,-1.4138 0.0728,-0.0867 0.54901,-0.38587 1.05833,-0.6649 1.66156,-0.91027 5.14218,-3.24381 5.90061,-3.95602 0.40769,-0.38283 0.80533,-0.69604 0.88365,-0.69604 0.2517,0 1.66428,-1.34326 7.09509,-6.74687 2.92508,-2.91042 5.71209,-5.58933 6.19337,-5.95313 0.4813,-0.3638 1.01362,-0.78401 1.18295,-0.93379 0.76161,-0.67368 3.88694,-2.73701 4.38542,-2.89521 0.30395,-0.0965 0.55266,-0.28646 0.55266,-0.42216 0,-0.13571 0.10406,-0.24676 0.23125,-0.24676 0.2304,0 2.09774,-1.04145 3.43238,-1.91431 0.38611,-0.25249 0.97031,-0.57713 1.29826,-0.72141 0.96173,-0.4231 5.14653,-3.30315 6.11243,-4.20666 0.4883,-0.45679 0.9398,-0.83053 1.0034,-0.83053 0.2328,0 1.0576,-0.77598 6.933,-6.52249 3.2958,-3.22357 6.7064,-6.43826 7.5791,-7.14375 0.8727,-0.7055 1.7213,-1.40178 1.8858,-1.5473 0.1645,-0.14552 0.5636,-0.44318 0.8869,-0.66146 1.0917,-0.73721 3.3107,-2.33639 3.7336,-2.69073 0.6221,-0.52119 1.3566,-0.98209 2.0273,-1.27211 0.3274,-0.14157 0.5953,-0.37941 0.5953,-0.52853 0,-0.14912 0.1786,-0.27113 0.3969,-0.27113 0.2183,0 0.3969,-0.0961 0.3969,-0.21355 0,-0.11746 0.8027,-0.80207 1.7839,-1.52136 0.9812,-0.71929 1.9717,-1.48639 2.2011,-1.70467 0.7056,-0.67149 2.0641,-1.5875 2.3543,-1.5875 0.1514,0 0.2753,-0.1228 0.2753,-0.27289 0,-0.15009 0.1826,-0.34297 0.4058,-0.42863 0.8082,-0.31013 3.1264,-2.44822 9.6386,-8.88963 2.0229,-2.00091 3.8051,-3.63802 3.9605,-3.63802 0.1554,0 0.2826,-0.0989 0.2826,-0.21973 0,-0.12085 0.506,-0.59166 1.1244,-1.04624 0.9727,-0.71491 2.5318,-2.03986 3.9026,-3.31644 0.2183,-0.20328 1.4089,-1.10802 2.6459,-2.01054 1.2369,-0.90251 2.4586,-1.81237 2.715,-2.02191 0.2563,-0.20953 0.5296,-0.38097 0.6072,-0.38097 0.078,0 1.0235,-0.59532 2.1017,-1.32292 1.0783,-0.72761 2.085,-1.32292 2.237,-1.32292 0.1521,0 0.2766,-0.11104 0.2766,-0.24675 0,-0.13572 0.2239,-0.31784 0.4977,-0.40473 0.4391,-0.13936 0.838,-0.42068 2.0708,-1.46028 0.1758,-0.14822 0.4377,-0.26949 0.5822,-0.26949 0.1444,0 0.3578,-0.15168 0.4741,-0.33708 0.1164,-0.18539 0.5224,-0.53438 0.9021,-0.77552 0.3798,-0.24115 0.856,-0.59982 1.0583,-0.79706 0.2024,-0.19724 1.2013,-1.02556 2.22,-1.84072 2.0821,-1.66618 3.0563,-2.52129 5.1594,-4.52857 0.8003,-0.76392 2.4672,-2.26902 3.7041,-3.34465 1.237,-1.07564 2.2887,-2.05551 2.3372,-2.17751 0.049,-0.12199 0.188,-0.2218 0.31,-0.2218 0.122,0 1.0048,-0.52504 1.9617,-1.16674 0.957,-0.64171 2.2462,-1.40509 2.865,-1.69639 3.9313,-1.85073 7.4267,-3.59889 8.798,-4.40014 0.8731,-0.51015 1.7661,-1.01089 1.9844,-1.11276 1.4253,-0.66515 5.0916,-3.96594 9.6573,-8.69462 7.9797,-8.26452 8.1039,-8.38873 9.525,-9.52268 0.7276,-0.5806 1.4419,-1.18604 1.5875,-1.34541 0.3705,-0.40587 3.5012,-2.75293 3.672,-2.75293 0.077,0 0.4229,-0.2679 0.7682,-0.59532 1.118,-1.06006 2.279,-1.98329 2.6945,-2.14275 0.2232,-0.0857 0.4059,-0.27854 0.4059,-0.42863 0,-0.15009 0.1169,-0.27289 0.2598,-0.27289 0.1428,0 0.6636,-0.38695 1.1571,-0.85989 0.4936,-0.47295 1.5971,-1.52982 2.4523,-2.34861 2.7103,-2.59515 5.9204,-6.01815 5.9204,-6.31316 0,-0.15649 0.1786,-0.35306 0.3969,-0.43682 0.2182,-0.0838 0.3968,-0.26713 0.3968,-0.40747 0,-0.14035 0.1489,-0.40943 0.3308,-0.59796 0.8521,-0.88317 1.5213,-1.76414 1.5213,-2.00268 0,-0.14442 0.1074,-0.26257 0.2387,-0.26257 0.1313,0 0.3677,-0.32743 0.5253,-0.72761 0.3177,-0.80629 0.7837,-1.57589 1.2865,-2.12439 0.1819,-0.19844 0.3308,-0.52497 0.3308,-0.72563 0,-0.20066 0.1488,-0.46004 0.3307,-0.57641 0.1819,-0.11638 0.56,-0.62831 0.8401,-1.13763 0.2802,-0.50932 0.816,-1.39034 1.1906,-1.95781 0.3747,-0.56747 0.8003,-1.22184 0.9459,-1.45416 0.1455,-0.23232 0.592,-0.85672 0.9921,-1.38756 0.4002,-0.53084 0.7344,-1.06709 0.7427,-1.19167 0.01,-0.12458 1.8936,-1.77432 4.1896,-3.66609 l 4.1744,-3.43959 9.4365,-12.63023 9.4365,-12.63023 v -1.61101 c 0,-1.40594 0.1346,-1.83754 1.0573,-3.39061 1.2164,-2.04749 3.2679,-6.98375 4.0272,-9.69 0.3381,-1.20499 0.5602,-2.9996 0.6358,-5.13647 0.082,-2.31093 0.2733,-3.76171 0.6458,-4.89479 0.8795,-2.67463 1.1947,-6.07587 0.8224,-8.87252 -0.3673,-2.75869 -1.5012,-6.09588 -2.7916,-8.21601 -0.7119,-1.16963 -0.9154,-1.82807 -1.0369,-3.3552 -0.6315,-7.93873 -5.5852,-14.81686 -12.8401,-17.828377 -1.1161,-0.4633 -2.1042,-0.96018 -2.1957,-1.10419 -0.1943,-0.30562 -58.4239,-0.29164 -279.63042,0.0672 -83.31068,0.13513 -182.73918,0.24896 -220.95222,0.25295 -69.186355,0.007 -69.480285,0.01 -69.958175,0.53754 -0.26394,0.29165 -0.967,0.65296 -1.56235,0.80291 -3.58114,0.901957 -7.0712,2.964697 -10.36278,6.124737 -5.38742,5.17214 -7.36363,9.33279 -7.76803,16.35456 -0.16979,2.94816 -0.32428,3.84909 -0.88474,5.15938 -1.28402,3.0019 -1.48728,4.86873 -1.39722,12.83229 0.0777,6.86616 0.11973,7.40273 0.74677,9.525 0.36547,1.23693 0.74465,2.96333 0.84264,3.83646 0.5195,4.62888 2.11545,8.37918 5.06674,11.90625 0.77785,0.92959 2.19171,3.66859 4.75547,9.21249 l 3.6485,7.88957 8.41895,6.99826 c 4.63041,3.84905 8.41894,7.11475 8.41894,7.25712 0,0.60879 4.79187,10.7082 5.83541,12.29881 0.28642,0.43656 0.59278,1.00211 0.68082,1.25677 0.088,0.25466 0.24506,0.46302 0.34894,0.46302 0.10388,0 0.55277,0.50601 0.99752,1.12448 0.44475,0.61846 1.47697,1.83058 2.29381,2.69359 0.81684,0.86301 1.48517,1.66668 1.48517,1.78594 0,0.11925 0.0905,0.21682 0.20114,0.21682 0.11063,0 0.49758,0.27297 0.85989,0.6066 0.36232,0.33362 1.19454,0.97721 1.84938,1.43019 0.65485,0.45298 1.45354,1.07298 1.77488,1.37778 0.32134,0.3048 0.70829,0.55418 0.85989,0.55418 0.15161,0 0.27565,0.10347 0.27565,0.22993 0,0.12647 0.73674,0.69202 1.6372,1.25678 2.30156,1.44351 2.63435,1.63327 3.45603,1.97055 0.40018,0.16427 0.72873,0.37632 0.73011,0.47123 0.001,0.0949 0.53716,0.4076 1.19062,0.69487 0.65347,0.28728 1.18812,0.58742 1.18812,0.66699 0,0.0796 0.55761,0.43983 1.23913,0.80059 1.18373,0.62661 1.48893,0.83616 2.64124,1.81349 0.27881,0.23647 1.09736,0.89961 1.81901,1.47364 0.72165,0.57403 3.23015,2.95528 5.574475,5.29166 5.25813,5.24037 7.97207,7.81855 8.23607,7.82409 0.11085,0.002 0.60463,0.35951 1.09729,0.79375 0.49266,0.43423 1.01907,0.78952 1.16979,0.78952 0.15073,0 0.46201,0.16316 0.69175,0.36258 0.36233,0.3145 1.10918,0.75357 3.34898,1.96882 0.27957,0.1517 0.68691,0.34327 0.90519,0.42573 0.21828,0.0824 0.57547,0.26333 0.79375,0.40194 0.21828,0.13862 1.94469,0.99409 3.83646,1.90106 1.89177,0.90697 3.59691,1.80635 3.78921,1.99862 0.19229,0.19227 0.44197,0.34958 0.55483,0.34958 0.11286,0 0.45044,0.20836 0.75017,0.46302 0.29974,0.25467 0.8163,0.64162 1.14793,0.8599 0.75796,0.49891 2.71174,2.20692 4.01017,3.50573 0.54554,0.5457 1.04981,0.99219 1.1206,0.99219 0.0708,0 0.63648,0.51188 1.25707,1.13752 0.62059,0.62564 1.96179,1.8329 2.98044,2.68281 1.01864,0.84991 1.89177,1.64772 1.94027,1.7729 0.0485,0.12518 0.24694,0.2276 0.44097,0.2276 0.19403,0 0.39247,0.10609 0.44097,0.23576 0.12946,0.34607 2.80413,2.41007 3.12312,2.41007 0.1498,0 0.27374,0.14883 0.2754,0.33073 0.002,0.1819 0.47792,0.55825 1.05834,0.83632 0.58041,0.27807 1.0553,0.60923 1.0553,0.73591 0,0.12667 0.20836,0.30784 0.46302,0.40258 0.25466,0.0948 0.76067,0.37613 1.12448,0.62529 0.3638,0.24917 2.38786,1.58442 4.49791,2.96724 2.11006,1.38281 4.17002,2.82409 4.5777,3.20286 0.40768,0.37876 0.79246,0.68866 0.85508,0.68866 0.0626,0 0.54295,0.41671 1.06742,0.92604 0.52446,0.50932 1.03264,0.92806 1.12929,0.93052 0.0967,0.002 0.74476,0.53825 1.44025,1.19063 0.69549,0.65237 1.30783,1.18614 1.36075,1.18614 0.18078,0 2.87302,2.51046 6.10045,5.68854 5.29787,5.21687 7.89347,7.52773 9.72896,8.66168 0.69122,0.42703 1.25698,0.8555 1.25724,0.95216 2.6e-4,0.0967 0.53604,0.5141 1.19063,0.92764 0.65458,0.41355 1.19015,0.86003 1.19015,0.99219 0,0.13216 0.17859,0.24029 0.39687,0.24029 0.21829,0 0.39688,0.0936 0.39688,0.20811 0,0.27158 2.54794,2.17314 2.91185,2.17314 0.15387,0 0.34829,0.17859 0.43205,0.39687 0.0838,0.21828 0.26344,0.39688 0.39929,0.39688 0.24653,0 1.63543,0.91825 2.26192,1.49544 0.18197,0.16764 0.7805,0.57808 1.33006,0.91207 0.54956,0.334 1.05874,0.67357 1.1315,0.7546 0.0728,0.081 1.02526,0.85887 2.11666,1.72851 1.09141,0.86964 4.32094,3.90525 7.17674,6.74579 5.4807,5.45144 5.93516,5.87627 8.0368,7.51286 0.72761,0.5666 1.44198,1.1706 1.5875,1.34223 0.48345,0.57016 4.70243,3.32904 5.33288,3.48726 0.34114,0.0856 0.62025,0.25382 0.62025,0.37375 0,0.11994 0.2493,0.29721 0.554,0.39391 0.3047,0.0967 1.04884,0.50507 1.65365,0.9075 0.6048,0.4024 1.6281,1.01592 2.274,1.36334 0.6459,0.34743 1.30074,0.72189 1.45521,0.83214 3.00912,2.14776 5.70481,4.24741 5.70481,4.44342 0,0.138 0.17859,0.25093 0.39687,0.25093 0.21828,0 0.39688,0.17859 0.39688,0.39687 0,0.21828 0.11509,0.39688 0.25576,0.39688 0.14067,0 0.67645,0.42069 1.19063,0.93485 0.51417,0.51419 0.93486,1.04997 0.93486,1.19063 0,0.14067 0.11906,0.25577 0.26458,0.25577 0.33388,0 1.32292,0.9757 1.32292,1.30508 0,0.13571 0.23812,0.32234 0.52916,0.41471 0.29105,0.0924 0.52917,0.26199 0.52917,0.3769 0,0.28323 2.66326,2.93039 2.94822,2.93039 0.12473,0 0.22678,0.17859 0.22678,0.39688 0,0.21828 0.11206,0.39687 0.24902,0.39687 0.13696,0 0.7925,0.53578 1.45675,1.19063 0.66424,0.65484 1.29632,1.19118 1.40462,1.19189 0.1083,0 0.61931,0.38764 1.13558,0.8599 0.51627,0.47223 1.39255,1.09675 1.94728,1.38779 0.55474,0.29104 1.06781,0.67799 1.14016,0.8599 0.0723,0.1819 0.23989,0.33072 0.37232,0.33072 0.13243,0 1.12339,0.53579 2.20214,1.19063 1.07874,0.65484 2.04961,1.19062 2.15747,1.19062 0.10787,0 0.41467,0.19778 0.6818,0.43953 0.58681,0.53107 1.42173,1.02857 2.40026,1.43023 0.40018,0.16428 0.7276,0.37703 0.7276,0.47279 0,0.0958 0.33482,0.32231 0.74405,0.50347 0.40923,0.18114 0.99956,0.56737 1.31185,0.85834 0.3123,0.29093 0.68193,0.52898 0.8214,0.52898 0.13948,0 0.29329,0.0893 0.34181,0.19844 0.0485,0.10914 0.63439,0.63703 1.30198,1.1731 0.66757,0.53608 1.8396,1.57787 2.60451,2.31511 0.76488,0.73723 1.43341,1.34043 1.48558,1.34043 0.0522,0 0.67244,0.56555 1.37835,1.25677 0.70591,0.69123 2.10357,1.97115 3.10594,2.84427 1.00238,0.87313 2.03782,1.79586 2.301,2.05052 0.26319,0.25466 0.59759,0.46302 0.74311,0.46302 0.14552,0 0.26459,0.0961 0.26459,0.21366 0,0.1175 0.50601,0.57827 1.12448,1.02393 0.61846,0.44567 1.95791,1.45717 2.97656,2.2478 1.01864,0.79062 2.03068,1.5218 2.24896,1.6248 0.21828,0.10303 0.75406,0.42551 1.19062,0.71665 0.43656,0.29112 1.00211,0.60135 1.25677,0.6894 0.25466,0.088 0.46302,0.25723 0.46302,0.37595 0,0.11874 0.23741,0.29125 0.52761,0.38335 0.29017,0.0921 0.68215,0.30848 0.87106,0.48086 0.18891,0.17237 0.53914,0.43246 0.7783,0.57798 1.19348,0.72623 4.22161,2.89475 4.83148,3.45996 0.38044,0.35261 0.80467,0.64108 0.94268,0.64108 0.13803,0 0.25096,0.0902 0.25096,0.20053 0,0.1103 0.7739,0.72535 1.71979,1.36678 0.94588,0.64143 1.71979,1.25587 1.71979,1.36539 0,0.10953 0.44648,0.47008 0.99219,0.80126 0.5457,0.33115 1.23031,0.81208 1.52135,1.06876 0.29104,0.25664 1.51143,1.25849 2.71198,2.22631 1.20055,0.96782 2.18281,1.86579 2.18281,1.99551 0,0.12973 0.11496,0.23588 0.25546,0.23588 0.14052,0 0.59745,0.32742 1.01547,0.7276 1.35427,1.29657 2.53116,2.2968 4.28532,3.64204 0.94589,0.72539 1.80396,1.44796 1.9068,1.60573 0.10287,0.15775 0.69818,0.63368 1.32292,1.0576 0.62476,0.42391 1.19544,0.8306 1.2682,0.90379 0.39534,0.39756 2.63784,1.85282 2.85512,1.85282 0.14031,0 0.4033,0.17859 0.58446,0.39688 0.18116,0.21828 0.55293,0.39687 0.82614,0.39687 0.27323,0 0.49678,0.0926 0.49678,0.20571 0,0.25472 2.80599,1.4232 4.7625,1.98319 4.34377,1.2433 8.76221,1.49653 23.75194,1.36128 8.28008,-0.0747 11.19934,-0.1914 13.09688,-0.52353 z"
         style="fill:#171717;stroke-width:0.26458332" />
    </g>
  </g>
</svg>
