<?xml version="1.0" encoding="UTF-8" standalone="no"?>
<!-- Created with Inkscape (http://www.inkscape.org/) -->

<svg
   xmlns:dc="http://purl.org/dc/elements/1.1/"
   xmlns:cc="http://creativecommons.org/ns#"
   xmlns:rdf="http://www.w3.org/1999/02/22-rdf-syntax-ns#"
   xmlns:svg="http://www.w3.org/2000/svg"
   xmlns="http://www.w3.org/2000/svg"
   xmlns:sodipodi="http://sodipodi.sourceforge.net/DTD/sodipodi-0.dtd"
   xmlns:inkscape="http://www.inkscape.org/namespaces/inkscape"
   width="67.760193mm"
   height="67.747482mm"
   viewBox="0 0 67.760193 67.747482"
   version="1.1"
   id="svg8"
   inkscape:version="0.92.1 r15371"
   sodipodi:docname="plus.svg">
  <defs
     id="defs2" />
  <sodipodi:namedview
     id="base"
     pagecolor="#3dffff"
     bordercolor="#666666"
     borderopacity="1.0"
     inkscape:pageopacity="0"
     inkscape:pageshadow="2"
     inkscape:zoom="0.49497475"
     inkscape:cx="141.6179"
     inkscape:cy="463.68349"
     inkscape:document-units="mm"
     inkscape:current-layer="layer1"
     showgrid="false"
     inkscape:window-width="1600"
     inkscape:window-height="837"
     inkscape:window-x="-8"
     inkscape:window-y="-8"
     inkscape:window-maximized="1"
     fit-margin-top="0"
     fit-margin-left="0"
     fit-margin-right="0"
     fit-margin-bottom="0" />
  <metadata
     id="metadata5">
    <rdf:RDF>
      <cc:Work
         rdf:about="">
        <dc:format>image/svg+xml</dc:format>
        <dc:type
           rdf:resource="http://purl.org/dc/dcmitype/StillImage" />
        <dc:title></dc:title>
      </cc:Work>
    </rdf:RDF>
  </metadata>
  <g
     inkscape:label="Layer 1"
     inkscape:groupmode="layer"
     id="layer1"
     transform="translate(-111.67395,-396.27798)">
    <path
       style="fill:#ffffff;stroke-width:0.26458332"
       d="m 121.30111,463.64834 c -4.609,-1.11779 -8.35846,-4.98887 -9.32224,-9.62464 -0.40656,-1.95557 -0.40656,-45.77568 0,-47.73125 0.98971,-4.76048 4.94907,-8.71984 9.70955,-9.70955 1.95557,-0.40656 45.77568,-0.40656 47.73125,0 4.76048,0.98971 8.71984,4.94907 9.70955,9.70955 0.40656,1.95557 0.40656,45.77568 0,47.73125 -0.98971,4.76048 -4.94907,8.71984 -9.70955,9.70955 -2.11166,0.43901 -46.2796,0.36107 -48.11856,-0.0849 z m 27.99108,-13.00263 c 1.41419,-0.7313 1.55352,-1.51206 1.55352,-8.70518 v -6.49079 h 6.49079 c 9.02439,0 9.11963,-0.0553 9.11963,-5.29167 0,-5.2364 -0.0952,-5.29166 -9.11963,-5.29166 h -6.49079 v -6.49079 c 0,-9.02439 -0.0553,-9.11963 -5.29167,-9.11963 -5.2364,0 -5.29166,0.0952 -5.29166,9.11963 v 6.49079 h -6.49079 c -9.02439,0 -9.11963,0.0553 -9.11963,5.29166 0,5.23641 0.0952,5.29167 9.11963,5.29167 h 6.49079 v 6.44281 c 0,7.09224 0.12822,7.87245 1.42363,8.66236 1.10546,0.67409 6.357,0.73678 7.60618,0.0908 z"
       id="path3634"
       inkscape:connector-curvature="0" />
  </g>
</svg>
