<?xml version="1.0" encoding="UTF-8" standalone="no"?>
<!-- Created with Inkscape (http://www.inkscape.org/) -->

<svg
   xmlns:dc="http://purl.org/dc/elements/1.1/"
   xmlns:cc="http://creativecommons.org/ns#"
   xmlns:rdf="http://www.w3.org/1999/02/22-rdf-syntax-ns#"
   xmlns:svg="http://www.w3.org/2000/svg"
   xmlns="http://www.w3.org/2000/svg"
   xmlns:sodipodi="http://sodipodi.sourceforge.net/DTD/sodipodi-0.dtd"
   xmlns:inkscape="http://www.inkscape.org/namespaces/inkscape"
   width="166.95073mm"
   height="175.96893mm"
   viewBox="0 0 166.95073 175.96893"
   version="1.1"
   id="svg8"
   inkscape:version="0.92.1 r15371"
   sodipodi:docname="viber.svg">
  <defs
     id="defs2" />
  <sodipodi:namedview
     id="base"
     pagecolor="#ffffff"
     bordercolor="#666666"
     borderopacity="1.0"
     inkscape:pageopacity="0.0"
     inkscape:pageshadow="2"
     inkscape:zoom="0.35"
     inkscape:cx="206.53555"
     inkscape:cy="298.7081"
     inkscape:document-units="mm"
     inkscape:current-layer="layer1"
     showgrid="false"
     fit-margin-top="0"
     fit-margin-left="0"
     fit-margin-right="0"
     fit-margin-bottom="0"
     inkscape:window-width="1600"
     inkscape:window-height="837"
     inkscape:window-x="-8"
     inkscape:window-y="-8"
     inkscape:window-maximized="1" />
  <metadata
     id="metadata5">
    <rdf:RDF>
      <cc:Work
         rdf:about="">
        <dc:format>image/svg+xml</dc:format>
        <dc:type
           rdf:resource="http://purl.org/dc/dcmitype/StillImage" />
        <dc:title></dc:title>
      </cc:Work>
    </rdf:RDF>
  </metadata>
  <g
     inkscape:label="Layer 1"
     inkscape:groupmode="layer"
     id="layer1"
     transform="translate(-51.18747,-51.897578)">
    <path
       style="fill:#000000;stroke-width:0.26458332"
       d="m 95.268903,227.45206 c -1.26877,-0.65988 -1.88022,-1.36819 -2.68529,-3.1107 l -0.75429,-1.63259 -0.0773,-10.61584 -0.0773,-10.61583 -2.9654,-0.98 c -3.30435,-1.09202 -9.13108,-3.79853 -11.80203,-5.48203 -14.039428,-8.84904 -22.286983,-23.82372 -24.74839,-44.93443 -1.593092,-13.66344 -1.186594,-34.1896 0.924664,-46.69093 2.666999,-15.792028 9.26456,-28.619485 18.383206,-35.741954 10.99116,-8.585072 28.00358,-13.880343 49.731317,-15.479326 4.97771,-0.366319 19.36757,-0.359747 25.66458,0.01172 20.31222,1.198242 36.94132,5.855897 48.51451,13.588459 12.01578,8.028281 19.13751,22.305053 22.03556,44.174151 0.48311,3.64566 0.58611,6.0083 0.68866,15.79622 0.12521,11.95193 -0.0355,15.89011 -1.00948,24.73854 -1.15814,10.52141 -2.87966,17.36373 -6.07317,24.13832 -4.94297,10.48585 -12.2889,17.95562 -22.6165,22.99775 -6.43966,3.14396 -16.64622,6.00488 -27.11979,7.60171 -12.11236,1.8467 -25.45754,2.40482 -37.83542,1.58236 l -2.51354,-0.16701 -3.56384,4.07031 c -14.19121,16.20796 -15.26849,17.1687 -19.247667,17.16555 -1.3475,-0.001 -2.33369,-0.14432 -2.85307,-0.41445 z m 6.353757,-7.85156 c 2.73748,-2.80254 11.04742,-12.40332 17.98791,-20.78205 3.79358,-4.57971 4.00356,-4.78439 4.75759,-4.63731 1.44191,0.28125 16.0806,0.16618 20.24553,-0.15915 9.34653,-0.73007 17.02032,-1.96737 25.46159,-4.10535 8.32143,-2.10763 11.58736,-3.39814 16.12674,-6.37238 6.35883,-4.16636 11.46873,-10.63292 14.51129,-18.36396 3.37753,-8.58221 4.85743,-19.75027 4.87584,-36.79549 0.0138,-12.81254 -0.52658,-18.28349 -2.6658,-26.9875 -2.78002,-11.311228 -7.94199,-20.268376 -14.25653,-24.738175 -7.76391,-5.495744 -20.95328,-9.724465 -35.45417,-11.367167 -8.32879,-0.943509 -24.18818,-1.278732 -31.75,-0.671106 -18.05955,1.451168 -31.973557,5.878777 -41.039557,13.059296 -6.18615,4.899602 -11.12625,13.430374 -13.72243,23.696472 -1.745684,6.90299 -2.466343,13.35351 -2.76612,24.75922 -0.447729,17.03487 0.517379,26.79284 3.5672,36.06714 4.40497,13.3952 13.38993,22.51864 26.3781,26.78467 l 2.57969,0.84731 v 15.65042 c 0,17.36571 -0.0535,16.82589 1.66864,16.82709 0.72322,5.3e-4 1.22649,-0.39007 3.494487,-2.71198 z m 56.88166,-42.77028 c -4.91467,-1.32747 -17.73439,-7.62396 -25.706,-12.62569 -7.32175,-4.59396 -11.97124,-8.26766 -17.70047,-13.98565 -4.98828,-4.97849 -7.82659,-8.40499 -11.73023,-14.16115 -7.484377,-11.03617 -15.374757,-27.29405 -15.374757,-31.67921 0,-1.8405 0.85209,-4.434468 2.07196,-6.307578 1.99597,-3.0648 7.1441,-7.47635 10.537687,-9.02999 1.98141,-0.90712 4.52704,-0.80466 6.11488,0.24613 2.1667,1.43385 10.29138,12.299118 12.79773,17.114618 0.7103,1.3647 0.90231,2.07358 0.98037,3.61929 0.1525,3.01994 -0.51706,4.20801 -3.95196,7.01242 -3.11006,2.53919 -3.84035,3.46527 -4.10045,5.19976 -0.23771,1.58518 0.44869,3.73826 2.55831,8.02478 2.64674,5.37789 5.25123,8.95505 9.46435,12.9989 4.2501,4.07935 8.78102,6.83189 14.27663,8.67309 2.56691,0.86 3.70034,0.96872 5.10424,0.48961 1.3383,-0.45672 1.94101,-1.01103 4.1117,-3.78153 2.65129,-3.38388 3.66049,-3.98133 6.72513,-3.98133 2.05852,0 2.41957,0.0812 3.96875,0.89238 4.91108,2.57159 15.68133,10.61794 17.11773,12.78848 0.93058,1.4062 1.13036,3.90687 0.45629,5.71136 -1.03571,2.77261 -5.02987,7.84605 -7.86759,9.99353 -2.6222,1.98438 -4.685,2.8404 -7.05592,2.92806 -1.10255,0.0408 -2.36182,-0.0224 -2.79838,-0.14028 z m 17.40713,-43.93262 c -0.47529,-0.44279 -0.57704,-0.94855 -0.73194,-3.63802 -0.74737,-12.97645 -4.46505,-22.2281 -11.88913,-29.586758 -7.20673,-7.14321 -16.04654,-11.00672 -26.92116,-11.7661 -3.58009,-0.25 -3.82764,-0.30315 -4.38938,-0.94255 -0.80749,-0.91913 -0.77047,-2.084503 0.0937,-2.948645 l 0.68899,-0.688986 3.34591,0.162508 c 10.95349,0.531989 20.20465,4.172573 28.35356,11.157893 6.6424,5.693918 11.36734,13.703158 13.58167,23.022248 0.83279,3.5048 1.49505,8.90428 1.49505,12.18923 0,2.16963 -0.0594,2.45875 -0.61236,2.97819 -0.78247,0.73509 -2.25926,0.76497 -3.01488,0.061 z m -11.6655,-4.52011 c -0.7172,-0.66817 -0.78865,-1.02141 -0.93517,-4.62289 -0.19871,-4.88423 -1.80696,-9.68403 -4.50743,-13.45234 -1.33323,-1.86042 -4.49503,-4.98319 -6.25216,-6.17496 -3.23955,-2.19724 -7.79614,-3.80482 -12.75613,-4.500388 -2.64488,-0.37091 -3.36217,-0.56681 -3.84647,-1.05053 -0.7587,-0.75779 -0.7659,-1.91791 -0.0178,-2.86895 l 0.5775,-0.73416 2.53136,0.16734 c 7.94562,0.52526 15.44845,3.88947 20.52535,9.203388 5.45111,5.70563 8.33204,13.08214 8.33204,21.33392 0,1.704 -0.0782,2.01537 -0.64944,2.58663 -0.81698,0.81698 -2.19047,0.86866 -3.00164,0.11294 z m -10.565,-3.37543 c -0.98941,-0.15469 -1.56479,-1.18935 -1.75253,-3.15137 -0.43831,-4.58073 -2.37573,-7.76882 -5.62519,-9.25647 -0.78731,-0.36044 -2.62265,-0.86409 -4.07855,-1.11923 -2.95942,-0.51861 -3.40947,-0.84091 -3.42341,-2.4517 -0.006,-0.75059 0.15791,-1.10524 0.7192,-1.55158 0.65321,-0.51944 0.93655,-0.56288 2.7714,-0.42488 6.27137,0.47167 11.10809,4.04014 13.04789,9.62654 0.75605,2.17732 1.2874,6.10332 0.94716,6.99823 -0.40081,1.05422 -1.33203,1.52964 -2.60597,1.33046 z"
       id="path23"
       inkscape:connector-curvature="0" />
    <path
       style="fill:#000000;stroke-width:0.26458332"
       d=""
       id="path21"
       inkscape:connector-curvature="0" />
  </g>
</svg>
