<?xml version="1.0" encoding="UTF-8" standalone="no"?>
<!-- Created with Inkscape (http://www.inkscape.org/) -->

<svg
   xmlns:dc="http://purl.org/dc/elements/1.1/"
   xmlns:cc="http://creativecommons.org/ns#"
   xmlns:rdf="http://www.w3.org/1999/02/22-rdf-syntax-ns#"
   xmlns:svg="http://www.w3.org/2000/svg"
   xmlns="http://www.w3.org/2000/svg"
   xmlns:sodipodi="http://sodipodi.sourceforge.net/DTD/sodipodi-0.dtd"
   xmlns:inkscape="http://www.inkscape.org/namespaces/inkscape"
   width="106.81046mm"
   height="107.37579mm"
   viewBox="0 0 106.81045 107.37577"
   version="1.1"
   id="svg8"
   inkscape:version="0.92.1 r15371"
   sodipodi:docname="whatsapp.svg">
  <defs
     id="defs2" />
  <sodipodi:namedview
     id="base"
     pagecolor="#ffffff"
     bordercolor="#666666"
     borderopacity="1.0"
     inkscape:pageopacity="0.0"
     inkscape:pageshadow="2"
     inkscape:zoom="0.35"
     inkscape:cx="-149.91176"
     inkscape:cy="378.05584"
     inkscape:document-units="mm"
     inkscape:current-layer="layer1"
     showgrid="false"
     fit-margin-top="0"
     fit-margin-left="0"
     fit-margin-right="0"
     fit-margin-bottom="0"
     inkscape:window-width="1600"
     inkscape:window-height="837"
     inkscape:window-x="-8"
     inkscape:window-y="-8"
     inkscape:window-maximized="1" />
  <metadata
     id="metadata5">
    <rdf:RDF>
      <cc:Work
         rdf:about="">
        <dc:format>image/svg+xml</dc:format>
        <dc:type
           rdf:resource="http://purl.org/dc/dcmitype/StillImage" />
        <dc:title></dc:title>
      </cc:Work>
    </rdf:RDF>
  </metadata>
  <g
     inkscape:label="Layer 1"
     inkscape:groupmode="layer"
     id="layer1"
     transform="translate(-145.49748,-141.48481)">
    <path
       style="fill:#000000;stroke-width:0.26458332"
       d=""
       id="path21"
       inkscape:connector-curvature="0" />
    <path
       style="fill:#020202;stroke-width:0.26458332"
       d="m 145.55807,248.1437 c 0.0974,-0.40019 1.78091,-6.58604 3.74107,-13.74635 l 3.56395,-13.01873 -1.42992,-2.85627 c -7.37456,-14.73067 -7.54448,-31.79054 -0.4658,-46.76538 7.26602,-15.37115 21.94717,-26.55511 38.92094,-29.64958 3.85005,-0.7019 12.40028,-0.83892 16.48432,-0.26416 11.29902,1.59016 21.35267,6.45488 29.48332,14.26629 9.01132,8.6575 14.30985,18.98404 16.0949,31.36805 0.60442,4.19325 0.41622,12.67149 -0.37333,16.81785 -3.1747,16.67219 -13.83141,30.73801 -29.01317,38.29454 -2.02732,1.00907 -6.8316,2.84338 -9.12813,3.48519 -12.4116,3.46866 -26.40851,2.1749 -37.70664,-3.48529 l -2.11315,-1.05865 -13.89062,3.65926 c -7.63985,2.0126 -13.99283,3.66412 -14.11775,3.67005 -0.12491,0.006 -0.14741,-0.31664 -0.05,-0.71682 z m 60.60211,-9.71767 c 9.19855,-1.5228 16.95622,-5.44988 23.77765,-12.03668 6.36679,-6.1478 10.68213,-14.00347 12.64906,-23.02638 0.53221,-2.44139 0.60493,-3.49972 0.59995,-8.73125 -0.005,-5.18411 -0.0833,-6.312 -0.60652,-8.73125 -3.83585,-17.73585 -16.98659,-30.88754 -34.70035,-34.70283 -2.41425,-0.52 -3.55785,-0.59911 -8.73125,-0.60404 -6.6598,-0.006 -8.85252,0.32014 -14.26526,2.12398 -12.70311,4.23341 -23.51845,15.05907 -27.7939,27.82043 -4.17646,12.46591 -2.55931,26.42789 4.34386,37.50357 l 1.15939,1.86016 -2.20572,8.06812 c -1.21314,4.43746 -2.16767,8.10616 -2.12118,8.15266 0.0465,0.0465 3.80943,-0.88675 8.36206,-2.07388 l 8.27752,-2.15843 0.94297,0.56202 c 5.76308,3.43483 12.29194,5.64027 18.80235,6.35139 2.86857,0.31333 8.43993,0.13055 11.50937,-0.37759 z m 3.175,-18.52328 c -5.15574,-1.1415 -13.04553,-4.80445 -17.4625,-8.10722 -5.78424,-4.32514 -13.12279,-12.54171 -16.62943,-18.61902 -4.53902,-7.86655 -4.20158,-15.33446 0.94621,-20.94071 1.55114,-1.68928 2.76935,-2.19735 5.28588,-2.20452 2.45059,-0.007 3.15084,0.27344 3.85236,1.54279 1.04681,1.89413 4.82519,11.31812 4.82519,12.03495 0,0.99763 -0.62565,2.15365 -2.09932,3.87895 -0.68363,0.80036 -1.53018,1.84866 -1.88122,2.32955 l -0.63826,0.87434 0.72066,1.37462 c 1.89731,3.619 6.55821,8.76558 10.47208,11.56331 2.38862,1.70744 7.25711,4.19029 8.66427,4.41864 0.82298,0.13355 1.00906,0.0306 2.06822,-1.14488 0.64013,-0.71039 1.92586,-2.24413 2.85717,-3.40829 1.67145,-2.08935 1.70865,-2.1165 2.88272,-2.10336 0.96883,0.0109 2.26647,0.55059 6.99706,2.91042 l 5.80766,2.89711 0.0787,1.50072 c 0.0946,1.80271 -0.53632,4.43064 -1.43534,5.97872 -1.25134,2.15477 -5.40751,4.75934 -8.53524,5.34883 -1.90739,0.35948 -4.8325,0.30555 -6.77691,-0.12495 z"
       id="path49"
       inkscape:connector-curvature="0" />
  </g>
</svg>
