<?xml version="1.0" encoding="UTF-8" standalone="no"?>
<svg
   xmlns:dc="http://purl.org/dc/elements/1.1/"
   xmlns:cc="http://creativecommons.org/ns#"
   xmlns:rdf="http://www.w3.org/1999/02/22-rdf-syntax-ns#"
   xmlns:svg="http://www.w3.org/2000/svg"
   xmlns="http://www.w3.org/2000/svg"
   id="svg8"
   version="1.1"
   viewBox="0 0 874.71259 874.83453"
   height="874.83453mm"
   width="874.71259mm">
  <defs
     id="defs2" />
  <metadata
     id="metadata5">
    <rdf:RDF>
      <cc:Work
         rdf:about="">
        <dc:format>image/svg+xml</dc:format>
        <dc:type
           rdf:resource="http://purl.org/dc/dcmitype/StillImage" />
        <dc:title></dc:title>
      </cc:Work>
    </rdf:RDF>
  </metadata>
  <g
     transform="translate(419.2784,-205.63884)"
     id="layer1">
    <path
       id="path21"
       d="m -381.1784,1080.4009 c -18.79144,-2.4376 -33.69016,-16.3603 -37.60377,-35.1404 -0.48398,-2.3224 -0.49623,-12.2486 -0.49623,-402.16663 0,-389.91801 0.0122,-399.8442 0.49623,-402.16667 3.76029,-18.04435 17.79502,-31.79511 35.51268,-34.79412 3.14481,-0.53231 3.54244,-0.53299 271.17235,-0.46063 l 268.02293,0.0725 2.38125,0.57217 c 8.06209,1.93716 14.61336,5.2503 20.1535,10.19215 7.12129,6.35221 11.65704,14.15238 13.89121,23.88879 l 0.60711,2.64583 0.1366,156.21085 0.13658,156.21085 25.92917,13.84623 c 14.26104,7.61542 26.01605,13.84795 26.12225,13.85009 0.10621,0.003 0.23051,-25.26715 0.27623,-56.15395 l 0.0832,-56.15781 0.56398,-2.55356 c 0.3102,-1.40446 0.99433,-3.84524 1.5203,-5.42396 3.63469,-10.90971 11.56343,-20.07214 21.82604,-25.22207 12.25452,-6.1495 26.73834,-6.2402 39.06522,-0.24463 12.45685,6.0588 21.25642,17.71491 23.9652,31.7449 l 0.58348,3.02224 0.14708,79.04482 0.14706,79.04486 50.37201,26.8646 c 27.70463,14.77552 51.279,27.47102 52.3875,28.21223 9.50696,6.35672 16.15834,16.24102 18.59738,27.63658 l 0.61603,2.87816 v 163.51251 c 0,158.87227 -0.014,163.58007 -0.49623,165.89377 -3.65702,17.5487 -16.30368,30.3843 -34.07823,34.5872 l -2.46721,0.5834 -399.388546,0.036 c -219.663714,0.02 -399.745744,-0.01 -400.182314,-0.067 z M -69.631506,949.2168 v -43.78854 h 43.92083 43.92084 v 43.78854 43.78854 h 43.664794 43.664802 l -0.0987,-138.9724 c -0.0708,-99.59816 -0.18376,-140.32172 -0.39878,-143.7349 -0.64739,-10.27536 -0.8866,-13.49391 -1.524,-20.50521 C 100.54651,657.1043 93.561349,623.76656 83.117239,592.42616 68.876332,549.69233 48.397026,510.01448 21.436864,472.92289 l -3.33359,-4.58631 h -43.86739 -43.86739 v -43.87175 -43.87174 l -2.31511,-1.69025 c -9.24835,-6.75222 -16.17982,-11.52676 -24.27552,-16.72149 -58.069484,-37.26117 -124.243914,-60.18813 -193.013554,-66.87196 -11.02143,-1.07119 -22.21785,-1.71625 -35.12343,-2.02356 l -7.47448,-0.17798 v 349.94874 349.94875 h 131.10104 131.101054 z M -244.5211,774.32721 v -43.78854 h 43.92083 43.92084 v 43.78854 43.78855 h -43.92084 -43.92083 z m 174.889594,0 v -43.78854 h 43.92083 43.92084 v 43.78854 43.78855 h -43.92084 -43.92083 z M -244.5211,599.30533 v -43.92084 h 43.92083 43.92084 v 43.92084 43.92083 h -43.92084 -43.92083 z m 174.889594,0 v -43.92084 h 43.92083 43.92084 v 43.92084 43.92083 h -43.92084 -43.92083 z M -244.5211,424.41574 v -43.92083 h 43.92083 43.92084 v 43.92083 43.92084 h -43.92084 -43.92083 z m 612.4296,538.49325 c -0.12805,-29.35632 -0.20973,-32.53428 -1.12024,-43.59011 -5.57472,-67.69095 -31.96659,-132.13411 -75.5281,-184.42303 -11.00269,-13.20702 -25.58145,-27.99218 -38.89375,-39.44432 -11.65833,-10.0293 -26.21872,-20.71312 -39.76978,-29.18146 -6.26837,-3.91723 -18.80034,-11.13766 -19.3308,-11.13766 -0.0913,0 -0.16608,76.02142 -0.16608,168.93647 v 168.93646 h 87.47003 87.47004 z"
       style="fill:#ffffff;stroke-width:0.26458335" />
  </g>
</svg>
