<svg xmlns="http://www.w3.org/2000/svg" xmlns:xlink="http://www.w3.org/1999/xlink" viewBox="0 0 176.8 65.35"><defs><style>.cls-1{fill:none;}.cls-2{fill:#fff;}.cls-3{clip-path:url(#clip-path);}</style><clipPath id="clip-path" transform="translate(0 0)"><rect class="cls-1" width="176.79" height="65.35"/></clipPath></defs><title>Asset 1</title><g id="Layer_2" data-name="Layer 2"><g id="Layer_1-2" data-name="Layer 1"><polygon class="cls-2" points="19.8 10.15 8.58 33.93 8.58 10.15 0 10.15 0 64.73 8.58 64.73 8.58 47.96 11.23 42.97 19.57 64.73 28.38 64.73 16.45 34.47 28.38 10.15 19.8 10.15"/><g class="cls-3"><path class="cls-2" d="M44.19,10.15H31.56V64.73h8.58V44.22h4.06C52.77,44.22,57,39.46,57,30.73v-7.1c0-8.73-4.21-13.49-12.79-13.49M48.4,31.28c0,3.9-1.48,5.15-4.21,5.15H40.14V17.94h4.06c2.73,0,4.21,1.25,4.21,5.15Z" transform="translate(0 0)"/><path class="cls-2" d="M75.6,28.86l-2,12.71L70.92,28.78,66.24,10.15h-8.5l11.85,42.1-.08.47c-.7,4-3.2,4.76-7.56,4.45V64.8c11.93.78,15.28-4.13,17.31-14l9.2-40.7h-9Z" transform="translate(0 0)"/><polygon class="cls-2" points="107.92 17.94 116.89 17.94 116.89 10.15 90.38 10.15 90.38 17.94 99.34 17.94 99.34 21.46 107.92 21.46 107.92 17.94"/><rect class="cls-2" x="99.34" y="53.81" width="8.58" height="10.92"/><path class="cls-2" d="M132.49,17.32c2.42,0,4,1.17,4.37,4.14h8.57c-.6-7.62-5.12-11.94-12.95-11.94s-12.35,4.32-12.95,11.94h8.57c.34-3,2-4.14,4.37-4.14" transform="translate(0 0)"/><path class="cls-2" d="M132.49,57.55c-2.3,0-3.87-1.07-4.31-3.75h-8.6c.72,7.37,5.22,11.54,12.91,11.54s12.18-4.17,12.9-11.54h-8.6c-.44,2.67-2,3.75-4.31,3.75" transform="translate(0 0)"/><rect class="cls-2" x="149.58" y="10.15" width="7.64" height="11.31"/><rect class="cls-2" x="169.08" y="53.81" width="7.72" height="10.92"/><polygon class="cls-2" points="149.58 64.73 158.39 64.73 161.52 53.8 149.58 53.8 149.58 64.73"/><polygon class="cls-2" points="176.79 10.15 167.36 10.15 163.84 21.46 176.79 21.46 176.79 10.15"/><polygon class="cls-2" points="108.02 35.79 107.92 35.79 103.4 35.79 103.4 24.71 99.34 24.71 99.34 50.55 103.4 50.55 103.4 39.48 107.92 39.48 108.02 39.48 108.02 50.55 112.15 50.55 112.15 24.71 108.02 24.71 108.02 35.79"/><path class="cls-2" d="M120.84,24.42a8.69,8.69,0,0,0-1.37.11c-3.11.5-4.79,2.76-4.79,6.39V44.35c0,3.63,1.68,5.89,4.79,6.39a8.69,8.69,0,0,0,1.37.11c4,0,6.17-2.36,6.17-6.5V30.91c0-4.13-2.18-6.5-6.17-6.5m2.1,20.19c0,1.85-.81,2.55-2.1,2.55a2.05,2.05,0,0,1-1.37-.44,2.61,2.61,0,0,1-.73-2.11v-14a2.61,2.61,0,0,1,.73-2.11,2.06,2.06,0,0,1,1.37-.44c1.29,0,2.1.7,2.1,2.55Z" transform="translate(0 0)"/><polygon class="cls-2" points="141.14 24.71 138.37 43.06 136.93 34.2 135.38 24.71 129.74 24.71 129.74 50.55 133.28 50.55 133.28 32.28 136.31 50.55 136.93 50.55 140.15 50.55 142.95 32.02 142.95 50.55 145.51 50.55 146.79 50.55 146.79 24.71 145.51 24.71 141.14 24.71"/><polygon class="cls-2" points="149.58 24.71 149.58 50.55 161.51 50.55 161.51 46.86 153.64 46.86 153.64 39.29 157.22 39.29 158.63 39.29 160.07 39.29 160.07 35.6 159.58 35.6 157.22 35.6 153.64 35.6 153.64 28.4 157.22 28.4 161.51 28.4 161.51 24.71 157.22 24.71 149.58 24.71"/><path class="cls-2" d="M170.74,24.71h-6V50.55h4.06V40.84h1.92c4.06,0,6.05-2.25,6.05-6.39V31.1c0-4.13-2-6.39-6.05-6.39m2,10c0,1.85-.7,2.44-2,2.44h-1.92V28.4h1.92c1.29,0,2,.59,2,2.44Z" transform="translate(0 0)"/><path class="cls-2" d="M159,6.53h8.6a5.65,5.65,0,0,0,5.65-5.14,1.26,1.26,0,0,0-.32-1A1.3,1.3,0,0,0,172,0h-3.6A1.37,1.37,0,0,0,167,1.36V2h-7.32V1.38A1.37,1.37,0,0,0,158.31,0h-3.68a1.3,1.3,0,0,0-1,.42,1.26,1.26,0,0,0-.32,1A5.65,5.65,0,0,0,159,6.53" transform="translate(0 0)"/></g></g></g></svg>