<?xml version="1.0" encoding="utf-8"?>
<!-- Generator: Adobe Illustrator 20.1.0, SVG Export Plug-In . SVG Version: 6.00 Build 0)  -->
<svg version="1.1" id="Layer_1" xmlns="http://www.w3.org/2000/svg" xmlns:xlink="http://www.w3.org/1999/xlink" x="0px" y="0px"
	 viewBox="0 0 176.8 65.4" style="enable-background:new 0 0 176.8 65.4;" xml:space="preserve">
<style type="text/css">
	.st0{fill:#E9334D;}
	.st1{clip-path:url(#SVGID_2_);fill:#E9334D;}
	.st2{clip-path:url(#SVGID_2_);fill:#252525;}
</style>
<polygon class="st0" points="19.8,10.1 8.6,33.9 8.6,10.1 0,10.1 0,64.7 8.6,64.7 8.6,48 11.2,43 19.6,64.7 28.4,64.7 16.5,34.5 
	28.4,10.1 "/>
<g>
	<defs>
		<rect id="SVGID_1_" y="0" width="176.8" height="65.4"/>
	</defs>
	<clipPath id="SVGID_2_">
		<use xlink:href="#SVGID_1_"  style="overflow:visible;"/>
	</clipPath>
	<path class="st1" d="M44.2,10.1H31.6v54.6h8.6V44.2h4.1c8.6,0,12.8-4.8,12.8-13.5v-7.1C57,14.9,52.8,10.1,44.2,10.1 M48.4,31.3
		c0,3.9-1.5,5.1-4.2,5.1h-4.1V17.9h4.1c2.7,0,4.2,1.2,4.2,5.1V31.3z"/>
	<path class="st1" d="M75.6,28.9l-2,12.7l-2.7-12.8l-4.7-18.6h-8.5l11.9,42.1l-0.1,0.5c-0.7,4-3.2,4.8-7.6,4.4v7.6
		c11.9,0.8,15.3-4.1,17.3-14l9.2-40.7h-9L75.6,28.9z"/>
	<polygon class="st1" points="107.9,17.9 116.9,17.9 116.9,10.1 90.4,10.1 90.4,17.9 99.3,17.9 99.3,21.5 107.9,21.5 	"/>
	<rect x="99.3" y="53.8" class="st1" width="8.6" height="10.9"/>
	<path class="st1" d="M132.5,17.3c2.4,0,4,1.2,4.4,4.1h8.6c-0.6-7.6-5.1-11.9-12.9-11.9s-12.3,4.3-12.9,11.9h8.6
		C128.5,18.5,130.1,17.3,132.5,17.3"/>
	<path class="st1" d="M132.5,57.6c-2.3,0-3.9-1.1-4.3-3.7h-8.6c0.7,7.4,5.2,11.5,12.9,11.5c7.7,0,12.2-4.2,12.9-11.5h-8.6
		C136.4,56.5,134.8,57.6,132.5,57.6"/>
	<rect x="149.6" y="10.1" class="st1" width="7.6" height="11.3"/>
	<rect x="169.1" y="53.8" class="st1" width="7.7" height="10.9"/>
	<polygon class="st1" points="149.6,64.7 158.4,64.7 161.5,53.8 149.6,53.8 	"/>
	<polygon class="st1" points="176.8,10.1 167.4,10.1 163.8,21.5 176.8,21.5 	"/>
	<polygon class="st2" points="108,35.8 107.9,35.8 103.4,35.8 103.4,24.7 99.3,24.7 99.3,50.6 103.4,50.6 103.4,39.5 107.9,39.5 
		108,39.5 108,50.6 112.2,50.6 112.2,24.7 108,24.7 	"/>
	<path class="st2" d="M120.8,24.4c-0.5,0-0.9,0-1.4,0.1c-3.1,0.5-4.8,2.8-4.8,6.4v13.4c0,3.6,1.7,5.9,4.8,6.4
		c0.4,0.1,0.9,0.1,1.4,0.1c4,0,6.2-2.4,6.2-6.5V30.9C127,26.8,124.8,24.4,120.8,24.4 M122.9,44.6c0,1.8-0.8,2.5-2.1,2.5
		c-0.6,0-1-0.1-1.4-0.4c-0.5-0.4-0.7-1.1-0.7-2.1v-14c0-1,0.3-1.7,0.7-2.1c0.4-0.3,0.8-0.4,1.4-0.4c1.3,0,2.1,0.7,2.1,2.5V44.6z"/>
	<polygon class="st2" points="141.1,24.7 138.4,43.1 136.9,34.2 135.4,24.7 129.7,24.7 129.7,50.6 133.3,50.6 133.3,32.3 
		136.3,50.6 136.9,50.6 140.1,50.6 143,32 143,50.6 145.5,50.6 146.8,50.6 146.8,24.7 145.5,24.7 	"/>
	<polygon class="st2" points="149.6,24.7 149.6,50.6 161.5,50.6 161.5,46.9 153.6,46.9 153.6,39.3 157.2,39.3 158.6,39.3 
		160.1,39.3 160.1,35.6 159.6,35.6 157.2,35.6 153.6,35.6 153.6,28.4 157.2,28.4 161.5,28.4 161.5,24.7 157.2,24.7 	"/>
	<path class="st2" d="M170.7,24.7h-6v17.8v8h4.1v-9.7h0.3h1.7c4.1,0,6.1-2.3,6.1-6.4v-3.4C176.8,27,174.8,24.7,170.7,24.7
		 M172.7,34.7c0,1.8-0.7,2.4-2,2.4h-1.7h-0.3v-8.7h0.3h1.7c1.3,0,2,0.6,2,2.4V34.7z"/>
	<path class="st1" d="M159,6.5h8.6c2.9,0,5.4-2.2,5.7-5.1c0-0.4-0.1-0.7-0.3-1c-0.2-0.3-0.6-0.4-1-0.4l-3.6,0
		c-0.7,0-1.4,0.6-1.4,1.3l0,0.7h-7.3V1.4c0-0.8-0.6-1.4-1.4-1.4l-3.7,0c-0.4,0-0.7,0.2-1,0.4c-0.2,0.3-0.4,0.6-0.3,1
		C153.6,4.3,156.1,6.5,159,6.5"/>
</g>
</svg>
