<?xml version="1.0" encoding="UTF-8" standalone="no"?>
<svg
   xmlns:dc="http://purl.org/dc/elements/1.1/"
   xmlns:cc="http://creativecommons.org/ns#"
   xmlns:rdf="http://www.w3.org/1999/02/22-rdf-syntax-ns#"
   xmlns:svg="http://www.w3.org/2000/svg"
   xmlns="http://www.w3.org/2000/svg"
   id="svg8"
   version="1.1"
   viewBox="0 0 5.5149088 1.0599101"
   height="1.0599101mm"
   width="5.5149088mm">
  <defs
     id="defs2" />
  <metadata
     id="metadata5">
    <rdf:RDF>
      <cc:Work
         rdf:about="">
        <dc:format>image/svg+xml</dc:format>
        <dc:type
           rdf:resource="http://purl.org/dc/dcmitype/StillImage" />
        <dc:title></dc:title>
      </cc:Work>
    </rdf:RDF>
  </metadata>
  <g
     style="opacity:1"
     transform="translate(-73.313588,-174.36943)"
     id="layer1">
    <g
       transform="translate(0.00413397,-0.01240395)"
       id="layer1-9">
      <g
         transform="translate(-8.8772973e-7,-3.7961418e-4)"
         id="g285">
        <g
           id="g281">
          <g
             id="g288">
            <path
               d="m 78.82106,174.91194 v -0.52917 l -0.203605,9e-5 c -0.216661,1e-4 -0.278047,0.003 -0.354262,0.0167 -0.07199,0.0129 -0.08976,0.0181 -0.186274,0.0541 -0.167605,0.0625 -0.212393,0.0882 -0.471821,0.27106 -0.251445,0.17721 -0.405319,0.28122 -0.471559,0.31875 -0.03953,0.0224 -0.08838,0.0399 -0.205508,0.0735 -0.21362,0.0614 -0.357453,0.0919 -0.473752,0.10068 -0.07388,0.006 -0.331732,0.006 -0.401442,1.9e-4 -0.130533,-0.0103 -0.232108,-0.0278 -0.482389,-0.083 -0.0937,-0.0207 -0.241992,-0.0513 -0.329531,-0.068 -0.08754,-0.0167 -0.197908,-0.0389 -0.245263,-0.0492 -0.09154,-0.02 -0.106798,-0.0222 -0.0896,-0.0129 0.0057,0.003 0.132189,0.0581 0.28112,0.12223 0.148932,0.0641 0.277296,0.12007 0.285254,0.12428 l 0.01447,0.008 -0.01381,1.8e-4 c -0.02416,3.2e-4 -0.662126,-0.0652 -0.926703,-0.0952 -0.190769,-0.0216 -0.239782,-0.0302 -0.239775,-0.042 0,-0.0109 0.02542,-0.0578 0.08436,-0.15597 0.04293,-0.0715 0.06036,-0.10412 0.05949,-0.11143 -9.26e-4,-0.008 -0.0067,-0.0132 -0.02343,-0.0219 -0.03669,-0.0191 -0.07223,-0.0497 -0.17417,-0.15005 -0.13281,-0.13069 -0.210484,-0.19868 -0.256818,-0.22479 -0.01278,-0.007 -0.03879,-0.0188 -0.05779,-0.0257 -0.10262,-0.0374 -0.215892,-0.0491 -0.478105,-0.0492 l -0.149862,-4e-5 v 0.52917 0.52916 h 2.755389 2.755387 z m -5.510775,-2e-5 v -0.52956 l 0.236678,0.002 c 0.252787,0.002 0.259374,0.002 0.370302,0.0259 0.05897,0.0124 0.225814,0.0751 0.300458,0.11288 0.05937,0.03 0.159635,0.0963 0.347266,0.22946 0.220734,0.15665 0.381921,0.26461 0.445874,0.29863 0.03837,0.0204 0.0761,0.0334 0.199048,0.0684 0.186377,0.0531 0.300045,0.0794 0.401009,0.0925 0.08048,0.0105 0.261847,0.0155 0.382405,0.0106 0.183779,-0.008 0.281553,-0.023 0.605648,-0.0953 0.07276,-0.0163 0.195544,-0.0415 0.272852,-0.0561 0.07731,-0.0146 0.188257,-0.0368 0.246554,-0.0493 0.109761,-0.0235 0.122743,-0.0257 0.109572,-0.018 -0.0042,0.002 -0.137217,0.0601 -0.295545,0.12819 -0.158328,0.068 -0.289589,0.12545 -0.291691,0.12755 -0.0023,0.002 0.0016,0.003 0.01029,0.002 0.0078,-0.001 0.05504,-0.006 0.105062,-0.0104 0.278726,-0.0261 0.895418,-0.0924 0.997224,-0.10717 0.05729,-0.008 0.07145,-0.0129 0.07145,-0.0231 0,-0.0108 -0.02649,-0.0593 -0.08663,-0.15876 -0.04101,-0.0678 -0.0581,-0.0997 -0.05723,-0.10687 9.53e-4,-0.008 0.0073,-0.0134 0.02783,-0.024 0.01462,-0.008 0.02765,-0.0153 0.02894,-0.017 0.0013,-0.002 0.0098,-0.009 0.01889,-0.0154 0.0091,-0.007 0.06584,-0.0607 0.12609,-0.1199 0.119129,-0.11709 0.214031,-0.19954 0.256416,-0.22278 0.05484,-0.0301 0.147702,-0.054 0.252081,-0.0649 0.02387,-0.002 0.130379,-0.006 0.236678,-0.007 l 0.193269,-0.002 v 0.52966 0.52967 H 76.065687 73.3103 Z m 0,4e-4 v -0.52917 l 0.199471,1e-5 c 0.219211,1e-5 0.280917,0.003 0.365904,0.0188 0.07672,0.0141 0.08359,0.0162 0.197369,0.0596 0.159407,0.0608 0.194233,0.081 0.450032,0.26213 0.179301,0.12693 0.284875,0.1997 0.376791,0.25971 0.128758,0.0841 0.13096,0.085 0.30179,0.13422 0.210987,0.0607 0.348861,0.0907 0.460954,0.1003 0.08636,0.007 0.251061,0.01 0.351036,0.005 0.163346,-0.008 0.265824,-0.0243 0.558469,-0.0892 0.09663,-0.0214 0.216628,-0.0466 0.266651,-0.0559 0.141082,-0.0262 0.191048,-0.0361 0.292734,-0.0584 0.05186,-0.0114 0.09636,-0.02 0.09888,-0.0191 0.0025,8.4e-4 -0.122698,0.0561 -0.278265,0.12279 -0.155566,0.0667 -0.291219,0.12565 -0.301451,0.13099 l -0.0186,0.01 0.02067,-0.002 c 0.01137,-0.001 0.06904,-0.007 0.128157,-0.0125 0.314886,-0.0306 0.80009,-0.0823 0.93431,-0.0995 0.08963,-0.0115 0.109554,-0.017 0.109554,-0.0301 0,-0.0118 -0.02449,-0.0567 -0.08147,-0.14935 -0.05699,-0.0926 -0.06323,-0.10398 -0.06323,-0.11496 0,-0.009 0.01134,-0.0175 0.03177,-0.0245 0.01947,-0.007 0.07682,-0.0572 0.158401,-0.13948 0.103111,-0.10403 0.218566,-0.20604 0.261701,-0.23122 0.02695,-0.0157 0.07614,-0.0342 0.121087,-0.0454 0.09143,-0.0229 0.203189,-0.0312 0.422331,-0.0313 l 0.145728,-6e-5 v 0.52917 0.52916 h -2.75539 -2.755387 z m 0,-4.2e-4 v -0.52958 l 0.236678,0.002 c 0.249031,0.002 0.247414,0.002 0.360334,0.0238 0.0246,0.005 0.05614,0.013 0.07009,0.0183 0.01395,0.005 0.05885,0.0221 0.09978,0.0373 0.152025,0.0565 0.192506,0.08 0.434082,0.2522 0.217153,0.15483 0.432655,0.30066 0.494322,0.3345 0.03477,0.0191 0.07347,0.0324 0.200239,0.0688 0.291104,0.0836 0.391013,0.10115 0.603135,0.10576 0.271606,0.006 0.409228,-0.0106 0.767294,-0.092 0.154505,-0.0351 0.153998,-0.035 0.310059,-0.0639 0.0739,-0.0137 0.180621,-0.0351 0.237164,-0.0476 0.05654,-0.0125 0.104816,-0.022 0.107274,-0.0212 0.0025,8.2e-4 -0.12194,0.0556 -0.276438,0.12183 -0.321513,0.13773 -0.320181,0.13715 -0.320181,0.14005 0,0.001 0.0098,0.001 0.0217,-2.4e-4 0.01194,-0.001 0.10635,-0.0108 0.209806,-0.0211 0.391278,-0.0388 0.79558,-0.0824 0.884701,-0.0953 0.06381,-0.009 0.07442,-0.0126 0.07437,-0.0236 -5.8e-5,-0.0131 -0.01505,-0.0434 -0.04962,-0.10009 -0.0819,-0.13436 -0.09503,-0.15734 -0.09503,-0.16622 0,-0.007 0.0044,-0.0115 0.01964,-0.0183 0.02691,-0.012 0.02493,-0.0107 0.06144,-0.0406 0.01793,-0.0147 0.0677,-0.0626 0.110593,-0.10648 0.09213,-0.0942 0.206784,-0.19633 0.253631,-0.22579 0.02756,-0.0173 0.08389,-0.0391 0.130178,-0.0503 0.09428,-0.0228 0.203409,-0.0308 0.421872,-0.0309 l 0.143661,-6e-5 v 0.52917 0.52916 h -2.755388 -2.755387 z m 0,2e-5 v -0.52956 l 0.234611,0.002 c 0.194908,0.002 0.241957,0.003 0.278019,0.009 0.07966,0.013 0.139863,0.0265 0.166177,0.0375 0.01433,0.006 0.05862,0.0228 0.09841,0.0375 0.138362,0.051 0.185981,0.0788 0.421679,0.24658 0.257022,0.18295 0.451492,0.31365 0.510767,0.34327 0.03524,0.0176 0.066,0.0277 0.198234,0.0652 0.288513,0.0818 0.383751,0.0982 0.591178,0.10199 0.284847,0.005 0.402903,-0.009 0.791683,-0.0974 0.08072,-0.0183 0.197921,-0.0426 0.260449,-0.054 0.132261,-0.0241 0.207981,-0.0393 0.299157,-0.0601 0.03607,-0.008 0.06755,-0.0143 0.06997,-0.0135 0.0024,8e-4 -0.119184,0.0542 -0.270218,0.11874 -0.324012,0.13839 -0.3281,0.14018 -0.325321,0.14296 0.0023,0.002 0.06355,-0.003 0.400046,-0.0378 0.523963,-0.0534 0.742586,-0.0785 0.77618,-0.0891 0.01078,-0.003 0.01342,-0.006 0.01337,-0.0153 -8.7e-5,-0.0141 -0.02415,-0.0588 -0.07936,-0.14748 -0.05075,-0.0815 -0.06527,-0.10784 -0.06527,-0.11835 0,-0.007 0.02656,-0.0243 0.03839,-0.0243 0.0031,0 0.01015,-0.005 0.01567,-0.0107 0.0055,-0.006 0.02211,-0.0197 0.03689,-0.0307 0.01478,-0.011 0.0591,-0.0536 0.09849,-0.0947 0.106132,-0.11071 0.227276,-0.21587 0.276478,-0.24 0.106127,-0.052 0.202958,-0.0659 0.483895,-0.0692 l 0.191202,-0.002 v 0.52971 0.52971 h -2.755388 -2.755387 z m 0,0 v -0.52957 l 0.232544,0.002 c 0.210011,0.002 0.237751,0.003 0.286287,0.0105 0.08305,0.0133 0.132701,0.0246 0.160554,0.0364 0.01402,0.006 0.05804,0.0227 0.09783,0.0371 0.137223,0.0499 0.189358,0.0806 0.434805,0.25642 0.201259,0.14413 0.455234,0.31434 0.503203,0.33723 0.05895,0.0281 0.387579,0.11898 0.504797,0.13954 0.108156,0.019 0.140356,0.0216 0.287582,0.0239 0.289443,0.004 0.410131,-0.0109 0.795557,-0.10007 0.0648,-0.015 0.182934,-0.0392 0.262516,-0.0538 0.145343,-0.0266 0.19287,-0.0363 0.295014,-0.0599 0.03038,-0.007 0.05712,-0.0121 0.05942,-0.0114 0.0023,7.7e-4 -0.0179,0.0109 -0.0449,0.0224 -0.027,0.0115 -0.156986,0.067 -0.288865,0.12327 -0.131878,0.0563 -0.24629,0.10571 -0.254248,0.10991 -0.01178,0.006 -0.01281,0.008 -0.0055,0.008 0.0286,5.9e-4 0.88146,-0.0881 1.053527,-0.1096 0.09981,-0.0125 0.128699,-0.0178 0.134434,-0.0247 0.0069,-0.008 -0.0068,-0.0387 -0.04754,-0.10533 -0.02014,-0.033 -0.04938,-0.0809 -0.06498,-0.1065 -0.01559,-0.0256 -0.02943,-0.052 -0.03076,-0.0586 -0.0022,-0.0109 -7.41e-4,-0.0129 0.01441,-0.0206 0.0093,-0.005 0.0194,-0.009 0.02255,-0.009 0.0031,0 0.0093,-0.004 0.0136,-0.009 0.0043,-0.005 0.02183,-0.0192 0.03888,-0.0319 0.01705,-0.0126 0.0431,-0.036 0.05788,-0.052 0.12289,-0.13286 0.257723,-0.25297 0.318025,-0.28329 0.104846,-0.0527 0.237521,-0.0702 0.532569,-0.0704 l 0.141594,-6e-5 v 0.52917 0.52916 h -2.755385 -2.755387 z m 1.433418,0.20047 c -0.0014,-0.001 -0.0049,-0.002 -0.0079,-3.2e-4 -0.0033,0.001 -0.0023,0.002 0.0025,0.002 0.0044,1.8e-4 0.0068,-7.9e-4 0.0054,-0.002 z m 0.0053,-0.008 c -0.0028,-0.003 -0.0061,-0.006 -0.0072,-0.006 -0.0011,0 2.49e-4,0.003 0.0031,0.006 0.0028,0.003 0.0061,0.006 0.0072,0.006 0.0011,0 -2.48e-4,-0.003 -0.0031,-0.006 z m -0.04961,-0.02 c 0,-7.8e-4 -0.0042,-0.005 -0.0093,-0.009 l -0.0093,-0.008 0.0079,0.009 c 0.0074,0.009 0.01073,0.0112 0.01073,0.008 z m -1.389063,-0.17258 v -0.52955 l 0.230477,0.002 c 0.211162,0.002 0.235327,0.003 0.288354,0.0109 0.08159,0.0128 0.145184,0.0276 0.169415,0.0396 0.02114,0.0105 0.0663,0.0277 0.12204,0.0465 0.09571,0.0323 0.180358,0.0834 0.392741,0.23731 0.157296,0.11396 0.349819,0.24561 0.458887,0.31381 0.05769,0.0361 0.0858,0.0465 0.249052,0.0925 0.238705,0.0672 0.316561,0.0837 0.463541,0.0979 0.07099,0.007 0.388781,0.003 0.456954,-0.006 0.124688,-0.016 0.267208,-0.0433 0.457227,-0.0877 0.07276,-0.017 0.168569,-0.0374 0.212907,-0.0453 0.140202,-0.0251 0.251628,-0.0471 0.336247,-0.0664 0.0451,-0.0103 0.0828,-0.0179 0.08377,-0.0169 9.79e-4,9.7e-4 -0.124291,0.0554 -0.278369,0.121 -0.154078,0.0656 -0.291304,0.12438 -0.304947,0.13067 -0.02427,0.0112 -0.02449,0.0114 -0.01032,0.0116 0.01339,1.7e-4 0.219042,-0.0202 0.564286,-0.0558 0.324313,-0.0334 0.542945,-0.0585 0.593514,-0.0681 0.02315,-0.004 0.03281,-0.01 0.03281,-0.019 0,-0.01 -0.03482,-0.0725 -0.08149,-0.14654 -0.04772,-0.0757 -0.06734,-0.11109 -0.06734,-0.12155 0,-0.007 0.0284,-0.023 0.04103,-0.023 0.0046,0 0.01019,-0.004 0.01252,-0.008 0.0023,-0.004 0.02067,-0.02 0.04077,-0.0347 0.02251,-0.0165 0.04933,-0.0417 0.06983,-0.0655 0.04572,-0.0531 0.122634,-0.12685 0.203844,-0.19547 0.0752,-0.0635 0.109231,-0.0832 0.179643,-0.10351 0.09787,-0.0283 0.170859,-0.0352 0.404247,-0.0381 l 0.189135,-0.002 v 0.52973 0.52973 h -2.755386 -2.755387 z m 1.442806,0.19543 c 0,-0.002 -0.006,-0.006 -0.01344,-0.0106 l -0.01344,-0.008 0.0124,0.011 0.0124,0.011 -0.0114,-0.002 c -0.0092,-0.001 -0.0105,-6.8e-4 -0.0068,0.004 0.0033,0.004 0.0067,0.004 0.01244,0.001 0.0043,-0.002 0.0078,-0.006 0.0078,-0.007 z m -0.05126,-0.0266 c 0.0016,-0.003 0.0015,-0.004 -2.48e-4,-0.002 -0.0018,0.002 -0.0059,2e-4 -0.0092,-0.003 -0.0033,-0.003 -0.0079,-0.006 -0.0103,-0.006 -0.0024,0 9.5e-5,0.004 0.0055,0.008 0.01176,0.01 0.01068,0.01 0.01431,0.003 z m -1.391548,-0.16846 v -0.52917 l 0.191203,2e-5 c 0.209316,2e-5 0.276353,0.003 0.366902,0.019 0.07212,0.0123 0.103842,0.0203 0.125993,0.0314 0.01814,0.009 0.06082,0.0254 0.122054,0.0465 0.101343,0.0349 0.181126,0.0828 0.38654,0.23168 0.178934,0.12973 0.368168,0.25871 0.488768,0.33313 0.04502,0.0278 0.05731,0.032 0.249171,0.0862 0.195919,0.0553 0.275931,0.0725 0.417546,0.0899 0.06801,0.008 0.323807,0.009 0.417546,0.002 0.141197,-0.0115 0.291302,-0.039 0.574642,-0.1053 0.05343,-0.0125 0.151102,-0.0323 0.21704,-0.0439 0.126433,-0.0223 0.217829,-0.0408 0.305481,-0.0618 0.09025,-0.0216 0.106454,-0.0295 -0.239335,0.11748 -0.279875,0.11898 -0.314122,0.13393 -0.311687,0.13603 0.0019,0.002 0.03129,-0.001 0.381967,-0.0369 0.544913,-0.0555 0.789437,-0.0834 0.815455,-0.0933 0.0051,-0.002 0.0093,-0.007 0.0093,-0.011 0,-0.014 -0.02844,-0.0668 -0.07783,-0.14476 -0.05017,-0.0791 -0.07099,-0.11614 -0.07099,-0.12615 0,-0.007 0.02893,-0.0236 0.04072,-0.0236 0.0047,0 0.01056,-0.004 0.01297,-0.008 0.0024,-0.004 0.02081,-0.0198 0.04089,-0.0341 0.02112,-0.015 0.04585,-0.0373 0.05866,-0.0528 0.05202,-0.0631 0.118179,-0.12648 0.237429,-0.22738 0.06832,-0.0578 0.131889,-0.085 0.241846,-0.10351 0.083,-0.014 0.129894,-0.0168 0.321428,-0.0192 l 0.187068,-0.002 v 0.52974 0.52973 h -2.755389 -2.755387 z m 1.437845,0.20174 c 0.0081,-0.008 0.006,-0.0109 -0.01674,-0.022 -0.02217,-0.0108 -0.01884,-0.006 0.0059,0.008 0.01041,0.006 0.01204,0.008 0.0067,0.01 -0.0039,8.8e-4 -0.0113,-5e-4 -0.01654,-0.003 -0.0089,-0.004 -0.0089,-0.004 8.17e-4,0.004 0.01218,0.01 0.01334,0.0102 0.01984,0.004 z m -0.04672,-0.0281 c -0.0014,-0.002 -2.76e-4,-0.004 0.0025,-0.004 0.0076,0 0.003,-0.003 -0.01513,-0.0104 l -0.01632,-0.007 0.01447,0.0125 c 0.01546,0.0133 0.01854,0.0151 0.01447,0.009 z m -1.39113,-0.1741 v -0.52951 l 0.22841,0.002 c 0.207716,0.002 0.233653,0.003 0.286287,0.011 0.08339,0.0129 0.146664,0.027 0.165511,0.0368 0.02816,0.0146 0.03673,0.0179 0.125944,0.0483 0.100973,0.0344 0.191114,0.0886 0.392741,0.23615 0.145499,0.10646 0.310438,0.21925 0.457697,0.313 0.07204,0.0459 0.06537,0.0434 0.280243,0.10368 0.202378,0.0568 0.263273,0.0699 0.40721,0.0879 0.07306,0.009 0.31845,0.0102 0.423747,0.002 0.11032,-0.009 0.284302,-0.0382 0.44225,-0.0751 0.0478,-0.0112 0.118542,-0.0276 0.157196,-0.0366 0.03865,-0.009 0.109348,-0.0231 0.157097,-0.0314 0.123936,-0.0215 0.224707,-0.0413 0.307991,-0.0608 0.09338,-0.0218 0.09696,-0.0224 0.07441,-0.0116 -0.01023,0.005 -0.123713,0.0535 -0.252181,0.10804 -0.271185,0.11511 -0.34819,0.14865 -0.346094,0.15075 8.2e-4,8.3e-4 0.102762,-0.009 0.226513,-0.0212 0.683866,-0.0691 0.944394,-0.0985 0.973946,-0.10972 0.0093,-0.004 0.01033,-0.006 0.008,-0.0174 -0.0043,-0.0217 -0.02016,-0.0507 -0.07504,-0.13726 -0.05284,-0.0833 -0.07216,-0.11739 -0.07216,-0.12737 0,-0.007 0.03167,-0.0251 0.03931,-0.0221 0.0035,0.001 0.0094,-0.003 0.01456,-0.01 0.0048,-0.007 0.0232,-0.0217 0.04093,-0.0332 0.02154,-0.014 0.04031,-0.0308 0.05656,-0.0506 0.07167,-0.0873 0.256215,-0.25394 0.312663,-0.28236 0.106087,-0.0534 0.244657,-0.0716 0.545722,-0.0718 l 0.131258,-6e-5 v 0.52917 0.52916 H 76.065657 73.31027 Z m 1.439958,0.19977 c 0.0063,-0.007 0.0045,-0.008 -0.03291,-0.0271 -0.02179,-0.0108 -0.04037,-0.0189 -0.04131,-0.018 -9.31e-4,9.3e-4 0.0072,0.009 0.01805,0.0176 0.01086,0.009 0.0162,0.0118 0.01187,0.007 -0.0043,-0.005 -0.0066,-0.009 -0.005,-0.009 0.0053,0 0.0433,0.0205 0.04593,0.0247 0.004,0.007 -0.01142,0.005 -0.0228,-0.002 -0.009,-0.006 -0.0088,-0.005 0.0014,0.004 0.01376,0.0127 0.01605,0.013 0.02483,0.003 z m -1.439958,-0.1993 v -0.52917 l 0.151929,1.9e-4 c 0.216194,2.7e-4 0.323993,0.005 0.399519,0.0183 0.09834,0.0171 0.126466,0.0248 0.146741,0.0402 0.0054,0.004 0.01343,0.007 0.0178,0.007 0.0044,0 0.01574,0.003 0.02528,0.008 0.02933,0.0128 0.04939,0.0201 0.07468,0.0275 0.07065,0.0206 0.20301,0.10047 0.370548,0.22374 0.147518,0.10855 0.335543,0.23727 0.484977,0.33202 0.05112,0.0324 0.06377,0.0378 0.131608,0.0556 0.03037,0.008 0.100014,0.0276 0.154776,0.0437 0.153608,0.045 0.224843,0.0605 0.363453,0.0794 0.118823,0.0161 0.375506,0.0149 0.524966,-0.003 0.04957,-0.006 0.221008,-0.0359 0.295656,-0.0519 0.0216,-0.005 0.09322,-0.0212 0.159163,-0.0369 0.132125,-0.0313 0.156227,-0.0363 0.250114,-0.0518 0.08538,-0.014 0.197206,-0.0363 0.282795,-0.0563 0.03844,-0.009 0.07175,-0.0157 0.07403,-0.0149 0.0023,7.6e-4 -0.005,0.005 -0.01615,0.01 -0.04687,0.0198 -0.52344,0.22253 -0.555649,0.23636 -0.02159,0.009 -0.03195,0.0155 -0.02687,0.0163 0.009,0.001 0.645115,-0.0633 0.890902,-0.0903 0.183721,-0.0202 0.300106,-0.0357 0.310532,-0.0413 0.01799,-0.01 0.0036,-0.0429 -0.06439,-0.1485 -0.05207,-0.0809 -0.07664,-0.12356 -0.07664,-0.13299 0,-0.009 0.02949,-0.0243 0.04015,-0.0216 0.0063,0.002 0.0094,-8e-5 0.01143,-0.006 0.0029,-0.009 0.03221,-0.0322 0.0652,-0.0513 0.0108,-0.006 0.01964,-0.0131 0.01964,-0.0152 0,-0.007 0.07154,-0.0868 0.114295,-0.12809 0.05938,-0.0573 0.177868,-0.15692 0.202876,-0.17057 0.04963,-0.0271 0.134683,-0.0513 0.220264,-0.0628 0.06825,-0.009 0.193666,-0.0145 0.340031,-0.0146 l 0.127124,-6e-5 v 0.52917 0.52916 H 76.065717 73.31033 Z m 1.440437,0.20041 c 0.0044,-0.003 0.0072,-0.007 0.0062,-0.008 -0.004,-0.004 -0.08748,-0.0443 -0.08863,-0.0431 -0.0019,0.002 0.06567,0.0565 0.07033,0.0567 0.0023,9e-5 0.0077,-0.003 0.0121,-0.006 z m -0.03999,-0.0171 c -0.01307,-0.0107 -0.02305,-0.0201 -0.02219,-0.0209 0.0032,-0.003 0.06458,0.0298 0.06323,0.0339 -0.0033,0.0101 -0.01874,0.005 -0.04104,-0.0129 z m -1.400444,-0.18356 v -0.52939 l 0.226343,0.003 c 0.191457,0.002 0.235115,0.004 0.283262,0.0107 0.110943,0.0156 0.176612,0.0321 0.189404,0.0475 0.0026,0.003 0.0092,0.006 0.01452,0.006 0.009,0 0.03328,0.009 0.06049,0.0235 0.0062,0.003 0.01736,0.007 0.0248,0.008 0.03745,0.005 0.143129,0.0589 0.234657,0.11996 0.03755,0.0251 0.107331,0.0745 0.15508,0.10987 0.13978,0.10352 0.27126,0.19381 0.456779,0.31367 0.07517,0.0486 0.09041,0.0555 0.159204,0.0728 0.02274,0.006 0.08506,0.0232 0.138493,0.0388 0.191541,0.056 0.249175,0.068 0.425814,0.0892 0.09369,0.0112 0.332098,0.008 0.469222,-0.007 0.04378,-0.005 0.212798,-0.0341 0.297021,-0.0517 0.02763,-0.006 0.103264,-0.0234 0.168067,-0.0391 0.06481,-0.0157 0.17176,-0.0379 0.237711,-0.0492 0.131752,-0.0226 0.212017,-0.0386 0.305168,-0.0608 0.03369,-0.008 0.06209,-0.0138 0.06312,-0.0128 0.001,0.001 -0.120487,0.0536 -0.270028,0.11689 -0.277055,0.11721 -0.342578,0.14579 -0.339673,0.14816 9e-4,7.3e-4 0.05093,-0.004 0.111189,-0.0103 0.06025,-0.006 0.221175,-0.0229 0.357601,-0.0368 0.437965,-0.0444 0.722755,-0.0771 0.74409,-0.0853 0.01875,-0.007 4.23e-4,-0.0494 -0.06511,-0.14995 -0.04996,-0.0767 -0.07747,-0.12383 -0.07747,-0.13285 0,-0.009 0.02921,-0.0249 0.04048,-0.0219 0.0069,0.002 0.0099,-3e-5 0.01292,-0.008 0.0042,-0.011 0.02731,-0.0291 0.05911,-0.0462 0.01072,-0.006 0.0217,-0.0147 0.02441,-0.0198 0.0077,-0.0146 0.07779,-0.0928 0.115861,-0.1292 0.04998,-0.0479 0.166078,-0.14657 0.190922,-0.16234 0.04616,-0.0293 0.13952,-0.0572 0.230897,-0.0689 0.0703,-0.009 0.198669,-0.0145 0.345498,-0.0146 l 0.120923,-1.1e-4 v 0.52917 0.52916 h -2.755387 -2.755387 z m 1.438944,0.20264 c 0.0044,-0.002 0.008,-0.006 0.008,-0.008 0,-0.003 -0.09143,-0.0493 -0.09829,-0.0493 -0.0012,0 0.0051,0.005 0.01395,0.0118 0.0089,0.006 0.02636,0.0204 0.03886,0.0309 0.02484,0.0209 0.02579,0.0213 0.03748,0.015 z m -1.439815,-0.7318 v 0.52916 0.52917 h 2.757454 2.757455 v -0.52917 -0.52916 h -0.188102 c -0.223862,0 -0.396359,0.0123 -0.523999,0.0879 -0.164381,0.14784 -0.146838,0.10873 -0.294556,0.28112 -8.47e-4,0.008 -0.0053,0.0154 -0.0186,0.0212 -0.0091,0.004 -0.01762,0.008 -0.02635,0.0124 -3.97e-4,4.9e-4 -6.88e-4,10e-4 -0.001,0.002 -0.0098,0.0108 -0.0206,0.0159 -0.03307,0.0233 -0.0047,0.003 -0.0058,0.0228 -0.0155,0.0238 -0.0041,4.2e-4 -0.0062,-0.0105 -0.0088,-0.008 -0.0014,10e-4 -0.002,0.003 -0.0036,0.004 -0.0034,0.002 -0.01249,0.006 -0.02015,0.009 -0.002,6.3e-4 -8.73e-4,0.004 -0.0057,0.005 -0.0021,7e-4 -0.0017,-3.2e-4 -0.0026,-5.2e-4 -0.03649,0.0101 0.183866,0.27024 0.141593,0.29094 -0.04246,0.0208 -1.181542,0.12787 -1.214913,0.13487 -0.03337,0.007 0.697211,-0.29455 0.654741,-0.28215 -0.114679,0.0336 -0.298258,0.0725 -0.446485,0.0946 -0.03943,0.006 -0.101581,0.0184 -0.137976,0.0274 -0.133278,0.0343 -0.233953,0.0572 -0.325561,0.0734 -0.05157,0.009 -0.120625,0.0214 -0.153996,0.0274 -0.09018,0.0163 -0.390499,0.0276 -0.479554,0.0176 -0.214273,-0.0236 -0.28773,-0.0389 -0.480591,-0.0977 -0.06369,-0.0194 -0.132823,-0.0383 -0.153479,-0.0413 -0.0069,-0.001 -0.03894,-0.013 -0.05581,-0.0181 -0.176238,-0.1132 -0.364137,-0.23594 -0.540535,-0.36845 -0.235271,-0.17675 -0.312401,-0.20017 -0.374654,-0.22376 -0.0034,4.7e-4 -0.0066,10e-4 -0.01034,10e-4 -0.01136,-0.004 -0.0073,-0.002 -0.01447,-0.006 -0.0022,-10e-4 -0.0046,-0.003 -0.0067,-0.004 -3.81e-4,-2.6e-4 -6.22e-4,-8.5e-4 -0.001,-0.001 -0.0018,-9.4e-4 -0.0042,-0.001 -0.0057,-0.002 -8.41e-4,-7.9e-4 0.0025,-8e-5 0.0036,0 -0.003,-5.4e-4 -0.0081,-0.001 -0.01137,-0.003 h -5.16e-4 c -0.0083,-0.003 -0.01423,-0.002 -0.02015,-0.009 6.72e-4,-1.5e-4 4.6e-4,-2.1e-4 -0.0047,-0.001 -0.0031,-7e-4 -0.0051,-0.003 -0.0078,-0.004 -0.0085,-6.8e-4 -0.01809,-6e-5 -0.02429,-0.004 -0.0048,-0.003 -0.0046,-0.006 -0.0067,-0.009 -1.61e-4,-3e-5 -3.52e-4,4e-5 -5.16e-4,0 -5.32e-4,-1.2e-4 -10e-4,-3.6e-4 -0.0016,-5.1e-4 -0.001,-3.7e-4 -0.0011,-7.9e-4 -0.0026,-0.002 -9.76e-4,-4.5e-4 -0.0014,-2.4e-4 -0.0021,-5.2e-4 -0.0082,-0.003 -0.01544,-0.007 -0.02377,-0.009 -0.0027,-8e-4 -0.0034,-0.003 -0.0057,-0.004 -0.05108,-0.0108 -0.175574,-0.036 -0.250114,-0.0372 h -0.204528 z m 4.397148,0.44338 c -0.0011,8.7e-4 -0.002,0.002 -0.0031,0.003 8.99e-4,-8e-5 0.0017,-2.6e-4 0.0026,-5.2e-4 6.08e-4,-1.6e-4 9.26e-4,-0.001 0.001,-0.002 z m -3.056661,0.22634 c -0.03331,-0.0157 0.09314,0.0437 0.109037,0.0522 -0.0045,0.004 -0.01757,0.015 -0.0186,0.015 -0.0072,0 -0.05951,-0.0533 -0.09043,-0.0672 z"
               style="fill:#e3e3e3;fill-opacity:1;stroke-width:0.00413411"
               id="path207" />
          </g>
        </g>
      </g>
    </g>
  </g>
</svg>
